<svg width="233" height="61" viewBox="0 0 233 61" fill="none" xmlns="http://www.w3.org/2000/svg">
<g clip-path="url(#clip0_394_16102)">
<path d="M87.215 47.9241V51.5748H80.1484V9.8645H87.215V25.9103C88.8955 23.5356 92.0244 21.9127 95.7899 21.9127C104.422 21.9127 109.576 28.0529 109.576 36.9748C109.576 45.8966 104.42 52.0368 95.6725 52.0368C92.1392 52.0368 88.8955 50.4736 87.215 47.9241ZM102.509 36.9748C102.509 31.5887 99.3806 28.0554 94.6313 28.0554C89.8818 28.0554 86.7532 31.5887 86.7532 36.9773C86.7532 42.3658 89.8793 45.8966 94.6313 45.8966C99.3806 45.8966 102.509 42.3633 102.509 36.9748ZM141.555 51.5748H134.429V47.0552C132.806 50.2414 129.505 52.0368 125.335 52.0368C118.787 52.0368 114.503 47.2873 114.503 40.4506V22.3771H121.569V38.9449C121.569 42.9425 124.061 45.7218 127.652 45.7218C131.65 45.7218 134.429 42.593 134.429 38.3056V22.3745H141.555V51.5748ZM146.362 41.8414H152.849C153.139 44.623 155.282 46.3609 158.468 46.3609C161.25 46.3609 163.102 44.9702 163.102 43.2323C163.102 36.7449 147.114 42.9427 147.114 30.6047C147.114 25.5059 151.574 21.9152 157.599 21.9152C164.436 21.9152 169.128 25.6807 169.417 31.3563H162.93C162.525 28.6346 160.033 27.2439 157.774 27.2439C155.224 27.2439 153.544 28.4024 153.544 30.3725C153.544 36.6875 169.764 29.7357 169.764 42.9427C169.764 48.4461 165.305 52.0368 158.468 52.0368C151.404 52.0368 146.709 48.0989 146.362 41.8414ZM175.155 9.8645H182.222V26.8967C183.845 23.7106 187.204 21.9152 191.376 21.9152C197.923 21.9152 202.208 26.6645 202.208 33.5014V51.5748H195.142V35.0069C195.142 31.0093 192.649 28.2302 189.001 28.2302C185.061 28.2302 182.224 31.3588 182.224 35.6463V51.5773H175.158V9.8645H175.155ZM232.854 32.8047V51.5748H225.845V47.2299C224.629 50.1266 221.268 52.0393 217.098 52.0393C211.305 52.0393 207.365 48.3313 207.365 43.2922C207.365 37.6138 211.768 34.0806 218.314 34.0806H223.703C225.151 34.0806 225.845 33.269 225.845 32.1105C225.845 29.2714 223.642 27.2439 219.877 27.2439C216.111 27.2439 213.853 29.6184 213.737 32.2253H207.365C207.712 26.4323 212.635 21.9152 220.225 21.9152C227.64 21.9127 232.854 26.1999 232.854 32.8047ZM225.845 39.2344V38.7701H219.299C216.287 38.7701 214.259 40.4506 214.259 43.0001C214.259 45.2598 216.111 46.7656 218.779 46.7656C223.236 46.7656 225.845 43.6367 225.845 39.2344Z" fill="white"/>
<path d="M55.442 60.7617C54.8145 60.7629 54.1931 60.6386 53.6144 60.3961C53.0357 60.1536 52.5113 59.7978 52.0722 59.3496L1.69737 9.0094C1.09194 8.32859 0.693646 7.48898 0.549381 6.58941C0.405115 5.68984 0.520887 4.76778 0.883065 3.93179C1.24524 3.09581 1.83874 2.38072 2.59369 1.87072C3.34863 1.36072 4.23358 1.07705 5.14433 1.05311C6.36511 1.02055 7.55211 1.4562 8.46199 2.27076L58.8116 52.6112C59.4756 53.2798 59.9274 54.1296 60.1102 55.054C60.2926 55.9785 60.1978 56.9363 59.8378 57.8071C59.4777 58.6779 58.8684 59.423 58.0864 59.9487C57.3043 60.4744 56.3844 60.7572 55.442 60.7617ZM55.4458 31.7859C54.8181 31.7843 54.1969 31.6586 53.618 31.416C53.0391 31.1734 52.5139 30.8187 52.0726 30.3724L30.717 9.01799C30.274 8.57508 29.9226 8.04925 29.6828 7.47053C29.4431 6.89181 29.3197 6.27152 29.3197 5.64511C29.3197 5.01869 29.4431 4.39841 29.6828 3.81969C29.9226 3.24096 30.274 2.71513 30.717 2.27222C31.1599 1.82925 31.6858 1.47786 32.2646 1.23813C32.8434 0.998391 33.4637 0.875 34.0902 0.875C34.7166 0.875 35.3369 0.998391 35.9157 1.23813C36.4945 1.47786 37.0204 1.82925 37.4634 2.27222L58.8192 23.6262C59.2661 24.0669 59.621 24.592 59.8632 25.1711C60.1054 25.7502 60.2302 26.3716 60.2302 26.9993C60.2302 27.6269 60.1054 28.2484 59.8632 28.8274C59.621 29.4065 59.2661 29.9316 58.8192 30.3724C58.3812 30.8231 57.8565 31.1807 57.2768 31.4237C56.6971 31.6666 56.0743 31.7898 55.4458 31.7859ZM26.4276 60.8038C25.8 60.802 25.1788 60.6761 24.5999 60.4335C24.021 60.1909 23.4957 59.8363 23.0542 59.3901L1.69863 38.0359C0.917979 37.2556 0.432099 36.2287 0.323804 35.1303C0.215508 34.0318 0.4915 32.9298 1.10474 32.0121C1.71798 31.0944 2.6305 30.4177 3.68678 30.0975C4.74306 29.7772 5.87772 29.8332 6.89735 30.2558C7.47621 30.4955 8.00219 30.8469 8.44523 31.2899L29.8006 52.6441C30.2476 53.0847 30.6026 53.6099 30.8448 54.1889C31.087 54.768 31.2118 55.3894 31.2117 56.0171C31.2117 56.6447 31.087 57.2662 30.8447 57.8452C30.6025 58.4242 30.2476 58.9494 29.8006 59.3901C29.3627 59.8408 28.8381 60.1984 28.2585 60.4414C27.6789 60.6843 27.0561 60.8076 26.4276 60.8038Z" fill="#00F580"/>
</g>
<defs>
<clipPath id="clip0_394_16102">
<rect width="232.591" height="59.9288" fill="white" transform="translate(0.300781 0.875)"/>
</clipPath>
</defs>
</svg>
