<svg width="88" height="88" viewBox="0 0 88 88" fill="none" xmlns="http://www.w3.org/2000/svg">
<rect x="0.75" y="0.857422" width="87" height="87" rx="22.5" fill="#FFCACA"/>
<path d="M58.1277 51.562L53.1075 47.0566C51.5612 45.6689 49.121 46.9393 49.371 49.0019L50.6207 59.312C50.7012 59.9758 51.0727 60.5694 51.6346 60.9319L55.4052 63.3645C56.9024 64.3305 58.8749 63.2556 58.8749 61.4739V53.2365C58.8749 52.5975 58.6033 51.9887 58.1277 51.562Z" fill="#F78F8F"/>
<path d="M29.9973 51.562L35.0175 47.0566C36.5638 45.6689 39.004 46.9393 38.754 49.0019L37.5043 59.312C37.4238 59.9758 37.0523 60.5694 36.4904 60.9319L32.7198 63.3645C31.2226 64.3305 29.2501 63.2556 29.2501 61.4739V53.2365C29.2501 52.5975 29.5217 51.9887 29.9973 51.562Z" fill="#F78F8F"/>
<path d="M48.4828 56.6893H39.9522C37.5508 56.6893 35.5597 54.7993 35.5448 52.398C35.4249 33.1002 41.1817 24.5259 44.2799 22.6074C51.2906 27.4581 52.9044 42.6184 52.8445 52.4744C52.83 54.8486 50.857 56.6893 48.4828 56.6893Z" fill="#F16A6A"/>
<rect x="41.8359" y="38.3379" width="5.25" height="5.25" rx="2.625" transform="rotate(-90 41.8359 38.3379)" fill="white"/>
</svg>
