<svg width="24" height="25" viewBox="0 0 24 25" fill="none" xmlns="http://www.w3.org/2000/svg">
<path d="M12 23.7031C6.07 23.7031 1.25 18.8831 1.25 12.9531C1.25 7.02313 6.07 2.20312 12 2.20312C17.93 2.20312 22.75 7.02313 22.75 12.9531C22.75 18.8831 17.93 23.7031 12 23.7031ZM12 3.70312C6.9 3.70312 2.75 7.85313 2.75 12.9531C2.75 18.0531 6.9 22.2031 12 22.2031C17.1 22.2031 21.25 18.0531 21.25 12.9531C21.25 7.85313 17.1 3.70312 12 3.70312Z" fill="#353B3C"/>
<path d="M15.5302 14.963C15.3402 14.963 15.1502 14.893 15.0002 14.743L12.0002 11.743L9.00016 14.743C8.71016 15.033 8.23016 15.033 7.94016 14.743C7.65016 14.453 7.65016 13.973 7.94016 13.683L11.4702 10.153C11.7602 9.86305 12.2402 9.86305 12.5302 10.153L16.0602 13.683C16.3502 13.973 16.3502 14.453 16.0602 14.743C15.9102 14.893 15.7202 14.963 15.5302 14.963Z" fill="#353B3C"/>
</svg>
