<svg width="24" height="25" viewBox="0 0 24 25" fill="none" xmlns="http://www.w3.org/2000/svg">
<path d="M12 23.7031C6.07 23.7031 1.25 18.8831 1.25 12.9531C1.25 7.02313 6.07 2.20312 12 2.20312C17.93 2.20312 22.75 7.02313 22.75 12.9531C22.75 18.8831 17.93 23.7031 12 23.7031ZM12 3.70312C6.9 3.70312 2.75 7.85313 2.75 12.9531C2.75 18.0531 6.9 22.2031 12 22.2031C17.1 22.2031 21.25 18.0531 21.25 12.9531C21.25 7.85313 17.1 3.70312 12 3.70312Z" fill="#353B3C"/>
<path d="M12.0002 15.963C11.8102 15.963 11.6202 15.893 11.4702 15.743L7.94016 12.213C7.65016 11.923 7.65016 11.443 7.94016 11.153C8.23016 10.863 8.71016 10.863 9.00016 11.153L12.0002 14.153L15.0002 11.153C15.2902 10.863 15.7702 10.863 16.0602 11.153C16.3502 11.443 16.3502 11.923 16.0602 12.213L12.5302 15.743C12.3802 15.893 12.1902 15.963 12.0002 15.963Z" fill="#353B3C"/>
</svg>
