<svg xmlns="http://www.w3.org/2000/svg" width="24" height="32" viewBox="0 0 24 32" fill="none">
  <path d="M20 24.9995C19.8688 25.0011 19.7388 24.9752 19.6183 24.9236C19.4977 24.8719 19.3893 24.7956 19.3 24.6995L3.3 8.69949C2.9 8.29949 2.9 7.67949 3.3 7.27949C3.7 6.87949 4.32 6.87949 4.72 7.27949L20.7 23.2995C21.1 23.6995 21.1 24.3195 20.7 24.7195C20.5 24.9195 20.24 25.0195 20 25.0195V24.9995Z" fill="#222222"/>
  <path d="M4 25C3.86885 25.0016 3.73881 24.9757 3.61826 24.9241C3.4977 24.8724 3.38929 24.7961 3.3 24.7C2.9 24.3 2.9 23.68 3.3 23.28L19.3 7.3C19.7 6.9 20.32 6.9 20.72 7.3C21.12 7.7 21.12 8.32 20.72 8.72L4.7 24.7C4.5 24.9 4.24 25 4 25Z" fill="#222222"/>
</svg>