<svg width="209" height="61" viewBox="0 0 209 61" fill="none" xmlns="http://www.w3.org/2000/svg">
<g clip-path="url(#clip0_394_16487)">
<path d="M59.5308 34.081H44.5032H44.474L44.3973 34.1613L44.4375 34.2271L44.2182 34.3039L44.0977 34.4683H43.9223L43.8419 34.4939V34.5414L43.7506 34.6474V34.7241L43.7944 34.757L43.6848 34.9214L43.5825 35.053V35.2247L43.4875 35.4293L43.2537 35.7692L43.1148 35.8277H43.0345L43.0673 35.8642V35.9629L43.0235 36.0286L42.8847 36.4562L42.7787 36.7266V36.8764L42.9614 37.0335L43.0966 37.187H43.1843L43.2683 37.4245L43.2318 37.5013L43.1769 37.483L43.1002 37.5342L43.06 37.6913V37.9288L43.155 38.0238V38.1773L43.0673 38.2504L43.0893 38.3929L43.1587 38.5647H43.1221L43.1623 38.645L43.1879 38.7693L43.2646 38.8351L43.1989 38.941L43.261 39.0141L43.3268 39.2078L43.3048 39.3065L43.535 39.5257L43.7031 39.5513L43.8419 39.6682V39.734L43.8894 39.7632L43.8675 39.9167L43.831 39.9934L43.8675 40.0227L43.7323 40.2127V40.2821L43.7579 40.3296V40.3698L43.7067 40.4173L43.736 40.6475L43.809 40.7864L43.7725 40.8266V40.991L43.809 41.0312V41.192L43.7396 41.2578L43.7652 41.4295L43.7177 41.7511H43.6921L43.7287 41.8059V42.0946H43.63V42.1311L43.6629 42.1787H43.7908L43.8273 42.2079L43.8565 42.4564L43.7908 42.5514L43.7213 42.5879L43.7615 42.6464V42.7085H43.6775L43.5862 42.8035L43.6117 42.8364L43.641 42.8108H43.7213L43.6629 42.8949V43.0264H43.5825L43.44 43.2055V43.2859L43.3121 43.4613H43.2062V43.5819L42.775 43.8157H42.7129L42.68 43.9071L42.2672 44.1263H42.1101V44.1592L41.9201 44.2469L41.6607 44.4187L41.5986 44.3748V44.4552L41.4415 44.6489L41.3611 44.6854L41.3172 44.5795L41.288 44.7476L41.2149 44.7695L41.1893 44.8645L40.9299 45.0216V45.0874L40.8642 45.1459L40.8021 45.1641V45.2555H40.634L40.2686 45.4857V45.6319L40.1554 45.7159H40.0019L39.9361 45.8L39.8156 45.7232H39.7461V45.8219L39.8083 45.895V45.9973L39.7608 46.0631V46.1581L39.6913 46.2604L39.8777 46.5125V46.6002L39.7973 46.666L39.8594 46.6952L39.9288 46.8085V46.962L40.0056 47.1045L39.9727 47.5065L40.0092 47.649H40.0567V47.5357L40.1298 47.3822V47.5174H40.159V47.6928L40.1079 47.7586V47.934L40.1371 47.9596L40.0604 48.1642V48.2739L40.0019 48.3469V48.4785H39.9654L39.9909 48.5918L40.0896 48.5333L40.1115 48.6064L40.0311 48.727L39.9909 48.8951L39.7571 49.1436L39.3369 49.3336L38.7706 49.4469L38.5514 49.6551L38.387 49.6953L38.3358 49.7721L38.2554 49.8379L38.2079 49.9986H38.1422L38.0801 50.0388L38.1093 50.0754L38.1714 50.1923V50.3092L38.2299 50.2325L38.3212 50.2617L38.3504 50.1521H38.3943V50.2069L38.3687 50.3896L38.3029 50.4956V50.6272L38.2262 50.7295H38.2627L38.186 50.9634L38.1641 51.1643L38.0691 51.358L38.007 51.6065L37.912 51.7198L37.8828 51.833L37.711 52.034H37.6526L37.616 52.0888L37.4845 52.151L37.4224 52.224L37.2653 52.3264L37.1886 52.4798L37.0607 52.626V52.6881L36.9876 52.827H36.8634L36.7647 53.017L36.509 53.4957L36.3007 53.6894L36.2678 53.8721L36.1473 53.9232L36.034 54.0585H35.9682L35.939 54.1096L35.2631 54.7747H35.1827V54.8076L35.0731 54.9318L34.631 55.2168L34.536 55.3192L34.3789 55.3667V55.4069L34.1304 55.4726L33.9916 55.5603H33.8454L33.7724 55.5055H33.5751L33.4143 55.5567L33.3449 55.6736L33.4399 55.754V55.7905H33.2134L33.0818 55.7248H32.9759L32.8845 55.8161L32.9247 55.8965L32.8845 55.9367L32.574 55.8709L32.4863 55.8015L32.1867 55.7284L31.993 55.765V55.8125L31.8907 55.849L31.7409 55.7686H31.3938L31.2915 55.8161L31.2623 55.9258L31.1929 55.8929L31.1125 55.9148L31.0394 55.9733L31.0029 56.0244H30.8494L30.7471 56.0683L30.5571 55.9988L30.4037 56.0536L30.3744 56.0975L30.2173 56.0646L30.0785 56.2217L29.9616 56.2437L29.9214 56.3387L29.852 56.3131L29.7899 56.3423L29.4683 56.1925L29.4026 56.229V56.0756L29.282 56.0098L29.187 56.0573L29.1285 56.0317L29.1797 55.9879L29.1468 55.8527L28.997 55.8271L28.8874 55.9221V56.039L28.807 55.9769V55.8454L28.8509 55.7357L28.8216 55.5749L28.9093 55.4288L28.7961 55.2241L28.6828 55.1218L28.5768 54.9574V54.7893L28.6463 54.7272L28.7084 54.7929H28.7668L28.8436 54.7089L28.8801 54.5116L28.8107 54.2923V54.1937L28.628 53.8867V53.7442L28.449 53.5103L28.3649 53.1449L28.2115 52.7649V52.5822L28.0726 52.1875L27.8644 52.034L27.8278 51.8257L27.6086 51.6686L27.5721 51.5773L27.4186 51.4238L27.2615 51.1132L27.1446 50.9524V50.7039L27.0423 50.5906V50.4591L27.1117 50.4079L27.0533 50.291L26.9656 50.2435L26.9181 49.9073L26.8413 49.8086L26.9327 49.7502L26.8742 49.5638L26.8961 49.2897L26.7025 48.7818V48.2848L26.6112 47.9523L26.6915 47.9157V47.649L26.3517 47.1557V46.973L26.0266 46.5125L25.9791 46.2239L25.6575 45.493L25.4529 45.1276L25.0876 44.7366L25.051 44.1848V44.119L25.0803 43.9144V43.6001L25.1095 43.3955V43.1616L25.2885 42.946L25.3251 42.7012L25.4822 42.4929V41.974L25.5406 41.9265V41.7109L25.906 41.3967V41.2395L26.191 41.0239H26.2677L26.5235 40.5452V39.9788L26.4431 39.8802V39.7742L26.1983 39.3722V39.2041L26.0996 39.047V38.8131L25.9827 38.7547L26.1873 38.4916L26.2166 38.2358L26.0229 37.9617V37.4574L25.6575 37.0555V36.9641L25.5881 36.8801L25.7745 36.7777L25.6539 36.7376H25.4676L25.4347 36.6608L25.4018 36.5841L25.4749 36.4489L25.431 36.2625L25.3506 36.1785L25.2776 36.0944L25.2885 35.9556L25.1862 35.8423V35.7253L24.9926 35.6011L24.9232 35.5317L24.7953 35.4074L24.766 35.3782L24.6528 35.3343L24.6455 35.2247L24.4116 35.1114L24.3495 34.9689L24.0572 34.7351L23.8819 34.5487L23.9294 34.5158L23.7649 34.3769L23.6955 34.2271L23.5969 34.1285V33.9311L23.48 33.7813V33.679L23.4069 33.6205L23.2717 33.3355V33.2697L23.4288 33.3209L23.553 33.2186L23.5823 32.8531L23.6005 32.6741L23.6736 32.7472L23.9586 32.6777L23.7576 32.6302L23.6298 32.4256L23.7686 32.4037V32.2502V32.2137L23.6078 32.1296L23.7686 31.8227L23.9732 31.5924L23.9257 31.4792L23.9513 31.4536L24.0536 31.3549L23.9586 31.2563L24.0463 31.0297L24.0244 30.7812L23.9074 30.6168V30.4341L23.9513 30.35L23.8526 30.1965L23.6626 30.2769L23.6042 30.2112H23.4909L23.4142 29.8128L23.3119 29.8677L23.2242 29.8275L23.1767 29.8567L23.0671 29.7434L23.0013 29.9261L22.8369 29.959L22.7309 29.8969L22.4313 30.0065L22.3656 29.9663L22.2377 30.0431L21.6129 30.0796L21.3791 30.0138L21.211 29.864L21.1379 29.6374L21.0503 29.5936V29.378L20.8895 29.0637L20.6264 28.8079L20.1514 28.5558L19.9468 28.6398L19.6947 28.5887H19.6692L19.2234 28.7385L18.9932 28.7093H18.9238L18.5767 28.9249H18.5219L18.1565 28.9687L17.8496 29.1185L17.5135 29.3999L17.1225 29.4365L16.5635 29.7032L16.3114 29.5899L15.9461 29.5424L15.9132 29.484L15.8218 29.3122L15.6976 29.3415L15.6684 29.5022L15.387 29.378L15.0619 29.484H14.2069L13.9621 29.5169V29.5826L13.5127 29.7434L13.4652 29.8092H13.3227L13.0962 30.0029L13.0377 29.9809L12.3983 29.7434L11.9051 29.378H11.7699L11.368 28.976H11.3388L11.0976 28.8152H10.999L10.8346 28.5777L10.7286 28.5302L10.7761 28.4389H10.7578L10.6738 28.3439H10.429L10.0856 28.1648L9.93941 28.1283L9.97595 28.0479L9.88095 27.9456L9.80057 27.8652L9.85538 27.7555V27.7263L9.72384 27.7738L9.5777 27.6167V27.4705L9.51193 27.2659H9.3877L9.34021 27.1636L9.4279 26.9991L9.33655 26.948V26.8493L9.40597 26.7287L9.31098 26.652L9.1356 26.5606L9.08445 26.3633H8.94926L8.8908 26.3048V26.2025L8.94196 26.1513L8.84696 26.0892L8.7885 26.1733L8.68985 26.1331H8.5437L8.39756 25.9321L8.45602 25.6946L8.35371 25.5813L8.20026 25.6251L8.16738 25.5886V25.479L7.89335 25.5082L8.0468 25.3438H7.97373L8.01027 25.2853L7.95181 25.2195H7.84585L7.80566 25.1647H8.11622L8.17103 25.1245L7.99931 24.993L7.8422 25.0258L7.67778 25.0843H7.60471L7.56817 24.993H7.43664L7.31972 24.876L7.43664 24.7847H7.34895H7.13338L7.07858 24.686V24.5618L7.02012 24.4923L7.12973 24.5216L7.19915 24.5435L7.33799 24.4558L7.11877 24.3791L6.97262 24.4558L6.93974 24.4083L7.00185 24.3389V24.1452L6.92878 24.0502L7.04204 23.9369L7.17357 24.105H7.34895L7.4476 24.0136L7.30145 24.0538L7.13338 23.9698L7.10415 23.8711L7.08589 23.82L7.17357 23.7542L7.02012 23.6446H7.07127V23.513L6.9507 23.4947L6.80821 23.2463L6.58898 23.0672L6.99454 22.7018L7.16261 22.3985L7.18819 22.1865L7.22473 21.9234L7.32703 21.5215L7.48414 21.3022L7.52798 20.8381L7.4001 20.1694L7.22107 19.8771L7.29415 19.8223H7.38549L7.43299 19.603L7.38549 19.4605L7.46952 19.3765L7.28318 19.0987L7.20646 19.1609L7.14434 19.1462L7.08954 18.9891L6.94705 19.1462V18.8978L7.02012 18.7443V18.7187V18.5068L7.08954 18.3679V18.2071L7.18088 18.1084H7.26126L7.46587 17.743L7.57913 17.6992L7.49875 17.6407V17.5786L7.75816 17.2351V17.1364L7.91892 16.771L8.01392 16.7199L8.31718 16.4385L8.3391 16.2521L8.73735 15.6748L8.63505 15.492L8.81042 15.3897L8.85427 15.2618L9.30367 15.028H9.42059V14.7612L9.67269 14.3958L9.82615 14.1765L10.4582 14.0596L10.9076 13.6649H11.1122L11.2986 13.464L11.3424 13.2849L11.748 12.8245L11.7918 12.6381L11.7188 12.5468L11.6639 12.4919L11.748 12.2508L11.642 12.0352V11.8963L11.8101 11.5528L12.0695 11.3189V11.1618L11.9672 10.9389L12.2595 10.727L12.3508 10.5881L12.5079 10.5369L12.7637 10.3652H12.866L13.045 10.1752L13.2825 10.0948L13.425 9.99612H13.4944L13.7867 9.72571L13.8744 9.55762L13.9037 9.29086L14.0425 9.10815L14.0681 8.74273L14.1923 8.60387H14.2946L14.3457 8.55637L14.4736 8.51252L14.5102 8.56002L14.4882 8.59657V8.66965L14.5175 8.77197L14.5869 8.82678L14.7659 9.0168L14.9048 9.04603L15.1021 9.0168L15.2372 8.94372H15.3432L15.5515 9.00218L15.7597 8.95833L15.873 8.83409H15.9205L15.9534 8.95833L16.0338 9.03872L16.3991 9.06796H16.4905H16.6622L16.8595 9.00584L16.9837 8.87063L17.0056 8.79389L17.086 8.72081L17.2395 8.64042H17.4221L17.4587 8.58926L17.5281 8.54175H17.6158L17.6596 8.58195H17.7291L17.8094 8.47598V8.37732L17.9629 8.28231H18.0542L18.2333 8.25673L18.5475 8.01555L18.69 8.03747H18.9384L19.0773 7.98997L19.2271 8.07036H19.3257L19.4901 7.90958L19.6144 7.95708H19.7495L19.8153 7.82553L19.8957 7.80726L20.0126 7.8438H20.0784L20.2136 7.86573L20.3853 7.83649L20.4657 7.85842H20.641L20.7251 7.98997H20.8712L21.0028 7.88765H21.1051L21.1891 7.92054L21.2695 7.81822L21.401 7.79264V7.70494L21.5508 7.6684L21.6422 7.73783V7.84015L21.865 7.86573L21.9746 7.7561V7.69033L22.15 7.75245L22.2925 7.87669L22.5665 7.7963L22.6615 7.81822L22.8442 7.78168L22.8771 7.82188L23.0452 7.67571L23.279 7.55877L23.4507 7.52223L23.5165 7.61724V7.53319L23.659 7.50396L23.7394 7.57704V7.69033L23.8051 7.71225L23.9001 7.93516L23.9659 7.9717L24.0426 7.89131L24.2728 7.67936L24.3313 7.72321V7.85111L24.2034 8.04113V8.15806L24.0463 8.26769L24.017 8.43578L24.1742 8.64773L24.3641 8.72081V8.93275L24.4116 8.96564L24.4372 9.057L24.3678 9.13008L24.4226 9.20682L24.3751 9.2799L24.1888 9.46261L23.8672 9.68917L23.8051 9.87919L23.9074 10.0656L24.112 10.2081L24.207 10.1861L24.2363 10.2848L24.324 10.325L24.3715 10.2848V10.2373L24.4116 10.2081L24.5103 10.2629V10.3542L24.5286 10.4237L24.7222 10.5406H24.7989L24.9451 10.5698L25.0693 10.6868L25.3872 10.7562L25.8402 10.6722L26.0193 10.7416H26.3846L26.6039 10.8841L27.0167 10.9426L27.1811 11.1582V11.3591L27.3821 11.7428L27.5977 11.8525H27.8461L27.9155 11.8123L28.1238 11.8378L28.6061 12.0388L28.9057 12.1923L29.0993 12.3494L29.3478 12.5541L29.6291 12.6673L29.7643 12.6162L29.9835 12.4298L30.0054 12.3677L30.1735 12.1996L30.2283 12.0534L30.1479 11.794L30.031 11.6113L30.0529 11.2787L30.1333 11.2166L30.1735 11.0412L30.3306 10.8877L30.6046 10.7562L30.9225 10.727L31.1235 10.6246H31.171L31.3098 10.6941L31.3756 10.6356L31.4304 10.6648L31.6569 10.7233H31.7957L32.0698 10.8731V10.9535L32.0186 10.9718L32.0698 11.0449L32.2999 11.107H32.468L32.5557 11.1874L32.9905 11.2386L33.1111 11.2203L33.228 11.2386L33.3193 11.3445L33.3778 11.5236H33.4435H33.7651L34.0135 11.604L34.5177 11.6442L34.726 11.688L34.9087 11.8159L34.9854 11.7684H35.0585L35.2448 11.8853H35.464H35.6175L35.8513 12.0315H36.0669L36.0925 11.973L36.2496 11.8378L36.4176 11.783L36.498 11.7392L36.6734 11.6442L36.7501 11.5894H36.9328H37.0607L36.9584 11.6332H36.8342V11.6624L36.878 11.7063L37.0205 11.6478H37.1447H37.2653V11.604L37.1703 11.5857L37.2068 11.5455L37.4261 11.604L37.5576 11.6478H37.6635L37.7183 11.7026L37.6562 11.7319L37.6855 11.8451L37.817 11.9182L37.9047 12.0498V11.9657L37.7841 11.8378L37.8133 11.7282L38.0508 11.8927L38.3724 11.805L38.7852 11.8744L38.9606 11.805L39.0446 11.6917L39.1141 11.7246L39.2419 11.9109L39.3077 12.1521L39.4904 12.4298L39.6329 12.766L39.5781 12.9231L39.6621 13.1424L39.6365 13.1826L39.5379 13.548V13.6869L39.4612 13.8805L39.5196 13.939L39.4721 14.1692L39.3844 14.2533L39.3589 14.33V14.2935L39.1871 14.1985L38.8766 13.8696L38.84 13.749L38.6683 13.6722L38.6062 13.5444V13.4165L38.3541 13.2045V13.1241L38.2956 13.0547L38.2518 12.8903H38.1897L38.1641 12.8501L38.1349 12.8939V12.9816V13.0693L38.2701 13.2447V13.3909L38.5112 13.6759L38.5404 13.7782L38.9058 14.0961L38.9606 14.1985L38.935 14.3008V14.3958L39.1542 14.6333V14.7064L39.22 14.7904L39.2456 15.0389L39.315 15.1485V15.2838L39.6877 15.8575L39.7169 16.0402L39.8229 16.1096L40.0786 16.475L40.1371 16.6468L40.2102 16.7345V16.6906L40.2504 16.7235L40.3563 16.8879H40.4184L40.4915 16.9647H40.3015L40.254 16.9245V16.9793L40.2978 17.067V17.2278L40.2686 17.3191L40.3673 17.659L40.5682 17.7869H40.6888L40.7692 17.7503L40.8496 17.9221L40.9847 17.9623L41.0249 18.0427L41.1747 18.1961L41.288 18.24V18.2948V18.3533L41.3209 18.4044V18.4373L41.3428 18.4666V18.4921L41.3684 18.5287L41.4122 18.7077L41.5364 18.8576V18.9197H41.5072L41.4889 18.8795L41.4378 18.8174L41.4159 18.8393V18.9562L41.573 19.4203L41.6059 19.6761L41.5693 19.9136L41.657 20.1913L41.7739 20.4142L41.8799 20.4362L42.1649 20.6262V20.7504H42.2964L42.4353 20.8235V20.9149H42.4608L42.6106 21.0757L42.881 21.7846L42.9687 22.2487H43.0162L43.0527 22.4204V22.4789L43.1404 22.5081L43.1952 22.6433L43.2281 22.8443L43.3414 22.8735V22.6908H43.3121V22.5593L43.3596 22.5373L43.4766 22.7054L43.4327 22.7529L43.5423 22.9174L43.6154 22.9941L43.6812 22.9503H43.7762L43.8163 22.9758L43.9004 22.9466L44.0173 23.0782L44.0794 23.1549L44.2584 23.1987L44.2986 23.2645L44.5178 23.5094L44.6128 23.6738L44.7444 23.7286L44.8394 23.8419H44.8905V23.8053L44.9344 23.8638L45.0403 24.1342L45.1207 24.1561L45.212 24.2731L45.1901 24.3133L45.2486 24.4412H45.3144L45.3874 24.4777L45.4386 24.4302L45.4605 24.4668H45.4934V24.5143L45.6432 24.6604H45.6834V24.7225L45.7053 24.9235L45.6395 24.9491L45.519 25.0843H45.4276L45.3619 25.183H45.223L45.2961 25.2707H45.3399L45.4386 25.2268H45.6066L45.6286 25.2707L45.6688 25.3511H45.709L46.1145 25.8444L46.162 25.943L46.2278 25.9613L46.3885 26.1075L46.5456 26.144L46.732 26.1221L46.7904 26.049L46.9585 25.9467H47.0645L47.28 25.7713H47.3458L47.3823 25.8078H47.5577L47.6198 25.7859L47.7477 25.8444L47.9377 25.8225L48.3286 25.5813L48.4565 25.5557L48.5844 25.6105L48.6794 25.5813H48.8548L49.0338 25.4899H49.2384L49.3005 25.5265H49.3663L49.6805 25.468L49.7682 25.3584L49.9582 25.3328L50.013 25.3803V25.3255L50.2103 25.3036L50.3272 25.1903H50.3491L50.4003 25.0989L50.4807 25.0222H50.5355V24.993L50.6122 25.0478L50.7766 25.1062H50.8533H50.8826L50.8131 25.2049L50.773 25.3072V25.4132L50.7364 25.479L50.7656 25.5338H50.8643V25.5703L50.7949 25.6288L50.7401 25.764L50.7949 25.8407L50.8168 25.9504L50.7693 26.0527H50.857V26.0198H50.8972L50.9374 26.0965L50.8935 26.1185V26.0929H50.8095H50.7547L50.6597 26.2537L50.7108 26.3377L50.6853 26.4912L50.6451 26.5606V26.7287L50.4222 27.0393L50.2724 27.3609L50.1774 27.4778H50.1263H59.5674C59.6175 27.478 59.6654 27.4571 59.6994 27.4203C59.7334 27.3835 59.7505 27.3341 59.7464 27.2841C59.7464 27.2001 59.7245 27.1197 59.7135 27.0393C59.6514 26.5314 59.5747 26.0271 59.487 25.5265C59.4614 25.373 59.4322 25.2159 59.4029 25.0624C59.2897 24.4777 59.1655 23.8967 59.0193 23.323C59.0193 23.2791 58.9937 23.2389 58.9828 23.1951C58.8439 22.6616 58.6868 22.1317 58.5188 21.6092C58.4713 21.4593 58.4238 21.3095 58.3726 21.1634C58.1972 20.6518 58.0072 20.1475 57.8172 19.6469C57.7953 19.5994 57.7807 19.5482 57.7588 19.5007C57.5396 18.9599 57.3021 18.43 57.0536 17.9075C56.9879 17.7686 56.9184 17.6334 56.8527 17.4982C56.6359 17.0597 56.4094 16.6285 56.1731 16.2046L56.0196 15.9232C55.7347 15.436 55.435 14.9488 55.1208 14.4616L54.887 14.0961C54.6264 13.7039 54.356 13.3202 54.0759 12.9451L53.7872 12.6783C53.4401 12.2252 53.0857 11.7794 52.7131 11.3482L52.4829 11.0887C52.1687 10.7233 51.8471 10.3798 51.5146 10.0363L51.2297 9.71841C50.8278 9.31279 50.4149 8.91448 49.9911 8.53079L49.8267 8.39193C49.4613 8.05209 49.0521 7.72687 48.6538 7.40895L48.2884 7.12027C47.8427 6.77678 47.3896 6.44059 46.9256 6.12267L46.8927 6.09709C46.4141 5.77187 45.9245 5.46126 45.4313 5.16162L45.0184 4.93141C44.5836 4.67927 44.1452 4.43443 43.6994 4.20057L43.4656 4.07632C42.9541 3.81687 42.4279 3.5757 41.8982 3.34548L41.4926 3.17739C41.0505 2.99103 40.6011 2.81197 40.148 2.65484L39.7827 2.52329C39.2346 2.33327 38.6866 2.15787 38.1129 2.00074L37.7476 1.89842C37.2799 1.77418 36.8086 1.6609 36.33 1.55858L35.8952 1.46357C35.3142 1.34664 34.7296 1.24432 34.1341 1.16393L33.8418 1.12738C33.3266 1.06161 32.8224 1.01045 32.3036 0.970253L31.8213 0.937366C31.2075 0.900824 30.5937 0.875244 29.9725 0.875244H29.8629C29.2783 0.875244 28.6901 0.900824 28.0982 0.937366L27.4807 0.988524C27.0642 1.02141 26.6477 1.06526 26.2312 1.11642C25.9681 1.14931 25.6977 1.17854 25.4347 1.21874H25.3762C11.9657 3.31968 1.64784 14.1835 0.238887 27.6861C0.238887 27.7446 0.238887 27.803 0.238887 27.8615C0.184082 28.2562 0.154852 28.6472 0.13293 29.0491C0.13293 29.1661 0.13293 29.283 0.13293 29.4145C0.078125 29.8567 0.078125 30.3171 0.078125 30.7812C0.078125 30.8177 0.078125 30.8543 0.078125 30.8908C0.078125 31.3184 0.078125 31.7386 0.107354 32.1625L0.129277 32.5279C0.151199 32.8933 0.176774 33.2588 0.213311 33.6461L0.235233 33.9055C0.282731 34.3514 0.34119 34.7935 0.406956 35.232C0.406956 35.3416 0.439839 35.4476 0.458108 35.5572C0.512913 35.9227 0.575026 36.2515 0.644446 36.595C0.666368 36.712 0.68829 36.8289 0.713866 36.9605C0.801554 37.3917 0.900203 37.8228 1.00981 38.2467C1.00981 38.2942 1.03539 38.3454 1.05 38.3929C1.14865 38.7583 1.25826 39.1493 1.37153 39.5221L1.48114 39.8875C1.5944 40.2529 1.71132 40.5818 1.84651 40.9289C1.87208 40.9983 1.894 41.0714 1.91958 41.1409C2.06938 41.5465 2.23014 41.9484 2.39456 42.3467L2.52609 42.65C2.66128 42.9607 2.80012 43.2713 2.94626 43.5819L3.09241 43.8888C3.2824 44.2762 3.45778 44.6562 3.677 45.0326L3.76834 45.1934C3.94737 45.5222 4.13371 45.8438 4.32736 46.1654L4.51735 46.476C4.71099 46.7903 4.90829 47.1009 5.1129 47.4078C5.14943 47.459 5.18232 47.5138 5.21885 47.5686C5.45634 47.934 5.70479 48.2666 5.94959 48.61L6.15054 48.8768C6.35515 49.1436 6.56341 49.4103 6.77532 49.6698C6.84474 49.7575 6.91051 49.8415 6.98358 49.9256C7.25395 50.2508 7.53163 50.5723 7.81662 50.8866L7.95912 51.0437C8.20391 51.3105 8.45602 51.5699 8.70812 51.8294L8.96388 52.0852C9.23425 52.3519 9.50828 52.6114 9.78596 52.8672L9.89922 52.9732C10.2134 53.2618 10.5386 53.5396 10.8638 53.81L11.1305 54.0256C11.3899 54.2375 11.6566 54.4495 11.927 54.6541L12.1791 54.8441C12.5189 55.0962 12.866 55.3447 13.2168 55.5749L13.4177 55.7028C13.7137 55.9002 14.0133 56.0938 14.3165 56.2802L14.6271 56.4702C14.9632 56.6712 15.303 56.8685 15.6465 57.0586L15.7524 57.117C16.1178 57.3217 16.5124 57.5153 16.8997 57.7017L17.2139 57.8552C17.5245 58.0013 17.8387 58.1402 18.1529 58.2791L18.4379 58.4033C18.8361 58.5677 19.238 58.7285 19.6436 58.8747L19.892 58.966C20.2282 59.083 20.5643 59.1999 20.9041 59.3059L21.2695 59.4192C21.6677 59.5398 22.0696 59.653 22.4715 59.759L22.5373 59.7773C22.9648 59.8869 23.3959 59.9856 23.8271 60.0769L24.1924 60.1464C24.5578 60.2158 24.8866 60.2779 25.241 60.3364L25.5443 60.3839C25.9827 60.4497 26.4248 60.5045 26.8669 60.552L27.1629 60.5775C27.5282 60.6141 27.8936 60.6397 28.259 60.6616L28.6243 60.6835C29.081 60.7018 29.5414 60.7164 30.0018 60.7164C30.4621 60.7164 30.959 60.7164 31.434 60.6835C31.6167 60.6835 31.7994 60.6579 31.9711 60.647C32.2671 60.6251 32.5593 60.6104 32.8516 60.5849C33.0416 60.5849 33.217 60.5374 33.4143 60.5154C33.6956 60.4862 33.9733 60.457 34.251 60.4168L34.8539 60.3181C35.1133 60.2742 35.369 60.2377 35.6248 60.1902C35.8805 60.1427 36.0413 60.0988 36.2496 60.055C36.4578 60.0111 36.7392 59.9563 36.9803 59.8979C37.2214 59.8394 37.4005 59.7882 37.6087 59.7334C37.817 59.6786 38.0801 59.6128 38.3139 59.5471C38.5477 59.4813 38.7268 59.4192 38.9314 59.3534C39.136 59.2876 39.3917 59.2145 39.6183 59.1378C39.8448 59.0611 40.0202 58.9916 40.2211 58.9185C40.4221 58.8455 40.6742 58.7578 40.9007 58.6701C41.1272 58.5824 41.299 58.502 41.4999 58.4179C41.7009 58.3339 41.9347 58.2425 42.1503 58.1475C42.3658 58.0525 42.5449 57.9611 42.7385 57.8698C42.9322 57.7784 43.166 57.6725 43.3742 57.5701C43.5825 57.4678 43.7396 57.3692 43.9442 57.2668C44.1488 57.1645 44.3607 57.0512 44.5653 56.938C44.77 56.8247 44.9307 56.7224 45.1171 56.6127C45.3034 56.5031 45.5263 56.3789 45.7236 56.2473C45.9209 56.1158 46.0889 56.0171 46.2607 55.9002C46.4324 55.7832 46.6553 55.648 46.8489 55.5165C47.0425 55.3849 47.196 55.268 47.3714 55.1511C47.5468 55.0341 47.7367 54.8843 47.9377 54.7454L48.4456 54.3471C48.6282 54.2046 48.8109 54.0658 48.99 53.9196L49.4759 53.4957C49.6513 53.3459 49.8413 53.1997 49.9984 53.0462C50.1555 52.8928 50.3089 52.7539 50.466 52.6077C50.6232 52.4616 50.8058 52.2935 50.9739 52.129C51.142 51.9646 51.2699 51.8221 51.4197 51.6723C51.5695 51.5224 51.7448 51.3397 51.9019 51.1716C52.059 51.0035 52.1906 50.8501 52.3331 50.6929C52.4756 50.5358 52.6436 50.3494 52.7934 50.174C52.9432 49.9986 53.0638 49.8415 53.199 49.6734C53.3342 49.5053 53.4949 49.308 53.6374 49.1363C53.7799 48.9645 53.8932 48.7708 54.0247 48.6137C54.1563 48.4566 54.2988 48.2483 54.4339 48.0583C54.5691 47.8682 54.6751 47.6928 54.7993 47.5211C54.9235 47.3493 55.0587 47.1557 55.1647 46.9474C55.2706 46.7391 55.3912 46.582 55.5081 46.3919C55.625 46.2019 55.7493 46.0009 55.8735 45.8C55.9977 45.599 56.0854 45.4345 56.1914 45.2226C56.2973 45.0107 56.4142 44.8243 56.5202 44.6233C56.6261 44.4223 56.7211 44.225 56.8198 44.0277C56.9184 43.8304 57.0244 43.6184 57.1194 43.4101C57.2144 43.2018 57.2984 43.0045 57.3898 42.7999C57.4811 42.5952 57.5761 42.3833 57.6638 42.1713C57.7515 41.9594 57.8246 41.7584 57.9049 41.5501C57.9853 41.3418 58.073 41.1189 58.1534 40.8997C58.2338 40.6804 58.2922 40.4795 58.3653 40.2712C58.4384 40.0629 58.5151 39.8254 58.5845 39.6024C58.6539 39.3795 58.7088 39.1749 58.7672 38.9593C58.8257 38.7437 58.8987 38.5098 58.9572 38.2796C59.0157 38.0494 59.0632 37.8411 59.1143 37.6182C59.1655 37.3953 59.2239 37.1651 59.2714 36.9349C59.3189 36.7047 59.3555 36.4854 59.3956 36.2625C59.4358 36.0396 59.487 35.7984 59.5235 35.5646C59.5601 35.3307 59.5856 35.1078 59.6185 34.8812C59.6514 34.6547 59.677 34.4719 59.6989 34.2673C59.7031 34.1697 59.6283 34.0868 59.5308 34.081ZM24.3459 10.1679L24.2436 10.0875V10.04H24.3641L24.4116 10.0984L24.3459 10.1679ZM9.76769 28.0515L9.68 27.9967L9.66173 27.9382L9.69096 27.8907H9.76038L9.81153 27.9529V28.0406L9.76769 28.0515ZM21.9673 32.7691L21.8943 32.8166H21.8431V32.696L21.9198 32.6156L22.0002 32.6668L21.9673 32.7691ZM23.0634 30.7081V30.6095H23.1475L23.1986 30.4596L23.3338 30.3208L23.3813 30.3646V30.5473L23.2863 30.7995L23.1621 30.7812L23.0634 30.7081Z" fill="#0090FC"/>
<path d="M37.9681 50.5322L37.9067 50.5431L37.8633 50.5539L37.9681 50.5322Z" fill="#0090FC"/>
<path d="M71.6983 49.6258L70.2368 53.0972H68.7461L74.391 40.2783L79.8935 53.0972H78.3845L76.9413 49.6258H71.6983ZM74.3435 43.4575L72.25 48.3578H76.375L74.3435 43.4575Z" fill="#0090FC"/>
<path d="M99.6558 42.1276V45.7818H103.73V47.0462H99.6558V53.1158H98.293V40.8596H103.843V42.1276H99.6558Z" fill="#0090FC"/>
<path d="M124.066 53.0973H122.703V40.8594H124.472C126.795 40.8594 128.951 41.4769 128.951 44.2359C128.951 46.1178 127.767 47.4516 125.885 47.6123L129.78 53.0936H128.107L124.409 47.722H124.066V53.0973ZM124.066 46.5197H124.49C126.032 46.5197 127.588 46.2274 127.588 44.3272C127.588 42.3137 126.127 42.1347 124.472 42.1347H124.066V46.5197Z" fill="#0090FC"/>
<path d="M149.816 53.0975H148.453V40.8596H149.816V53.0975Z" fill="#0090FC"/>
<path d="M178.841 43.5379C177.862 42.5122 176.51 41.9268 175.092 41.9155C172.367 41.9155 170.16 44.287 170.16 46.9802C170.177 49.7358 172.385 51.9766 175.14 52.0339C176.539 51.997 177.867 51.4132 178.841 50.4078V52.0961C177.778 52.868 176.501 53.2883 175.187 53.2983C172.926 53.2983 170.837 52.092 169.707 50.1338C168.576 48.1755 168.576 45.7629 169.707 43.8047C170.837 41.8465 172.926 40.6401 175.187 40.6401C176.505 40.6205 177.791 41.0424 178.841 41.8387V43.5379ZM200.01 49.6258L198.549 53.0973H197.054L202.703 40.2784L208.202 53.0973H206.693L205.231 49.6258H200.01ZM202.656 43.4575L200.562 48.3578H204.687L202.656 43.4575ZM85.8656 25.8772H72.0584C72.0584 28.5447 73.4614 29.9845 76.1651 29.9845C77.5718 29.9845 78.5802 29.5168 79.3 28.2926H85.6135C85.1488 30.3 83.8862 32.0312 82.1169 33.0869C80.3256 34.1354 78.2806 34.6713 76.2053 34.6363C70.0781 34.6363 65.5 31.1758 65.5 24.7955C65.5 18.6309 69.7163 14.9292 75.7303 14.9292C82.1462 14.9292 85.8583 18.894 85.8583 25.2012L85.8656 25.8772ZM79.7749 22.0914C79.4066 20.3478 77.844 19.1172 76.0628 19.1681C74.1519 19.1681 72.5662 20.1766 72.168 22.0914H79.7749Z" fill="#0090FC"/>
<path d="M106.127 17.3191V6.84253H113.193V34.0225H106.127V22.8845H95.9258V34.0225H88.8633V6.84253H95.9258V17.3191H106.127Z" fill="white"/>
<path d="M136.103 25.8772H122.299C122.299 28.5447 123.706 29.9845 126.406 29.9845C127.813 29.9845 128.821 29.5168 129.545 28.2926H135.851C135.384 30.3032 134.116 32.0355 132.34 33.0869C130.548 34.1354 128.503 34.6713 126.428 34.6363C120.301 34.6363 115.723 31.1758 115.723 24.7955C115.723 18.6309 119.939 14.9292 125.953 14.9292C132.369 14.9292 136.081 18.894 136.081 25.2012L136.103 25.8772ZM130.012 22.0914C129.644 20.3478 128.081 19.1172 126.3 19.1681C124.389 19.1681 122.803 20.1766 122.405 22.0914H130.012ZM159.87 34.0224H153.293V31.9687H153.224C152.069 33.7958 149.797 34.6363 147.634 34.6363C142.153 34.6363 138.299 30.0576 138.299 24.77C138.299 19.4823 142.084 14.9292 147.564 14.9292C149.691 14.9292 151.923 15.7222 153.293 17.3446V15.5285H159.87V34.0224ZM145.091 24.7955C145.091 27.1379 146.64 28.9394 149.307 28.9394C151.974 28.9394 153.531 27.1379 153.531 24.7955C153.531 22.5226 151.974 20.6078 149.307 20.6078C146.64 20.6078 145.091 22.5226 145.091 24.7955Z" fill="white"/>
<path d="M170.047 34.0224H163.488V4.10181H170.047V34.0224Z" fill="white"/>
<path d="M195.633 4.10181V17.8745H195.706C197.219 15.8537 199.057 14.9182 201.618 14.9182C206.302 14.9182 208.56 18.017 208.56 22.7017V34.0297H201.983V24.5434C201.983 22.3801 201.658 20.1584 199.027 20.1584C196.397 20.1584 195.604 22.3947 195.604 24.5434V34.0224H189.027V4.10181H195.633Z" fill="white"/>
<path d="M186.553 15.5285H182.841V4.10181H176.279V15.5285H172.57V20.9367H176.279V34.0224H182.841V20.9367H186.553V15.5285Z" fill="white"/>
</g>
<defs>
<clipPath id="clip0_394_16487">
<rect width="208.625" height="59.9289" fill="white" transform="translate(0.0898438 0.875)"/>
</clipPath>
</defs>
</svg>
