<svg width="88" height="88" viewBox="0 0 88 88" fill="none" xmlns="http://www.w3.org/2000/svg">
<rect x="1.125" y="1.23242" width="86.25" height="86.25" rx="22.125" fill="#B7EEFF" stroke="#E7E7E7" stroke-width="0.75"/>
<path d="M49.0483 40.3333C50.8193 40.3333 52.2567 41.7707 52.2567 43.5417V52.2482C52.2567 54.4367 51.3873 56.5356 49.8398 58.0831C48.2923 59.6306 46.1934 60.5 44.0048 60.5C41.8163 60.5 39.7174 59.6306 38.1699 58.0831C36.6224 56.5356 35.753 54.4367 35.753 52.2482V43.5417C35.753 41.7707 37.1885 40.3333 38.9613 40.3333H49.0483ZM35.0728 40.3333C34.4125 41.128 34.0153 42.1082 33.9362 43.1383L33.9178 43.5417V52.2482C33.9178 53.801 34.2698 55.2713 34.8968 56.584C33.8102 56.8747 32.6712 56.9116 31.5681 56.6918C30.4649 56.4721 29.427 56.0015 28.5347 55.3166C27.6424 54.6316 26.9196 53.7506 26.4222 52.7417C25.9248 51.7328 25.666 50.623 25.666 49.4982V43.5417C25.666 42.7365 25.9688 41.9608 26.5143 41.3684C27.0597 40.7761 27.8079 40.4106 28.6103 40.3443L28.8743 40.3333H35.0728ZM52.9368 40.3333H59.1243C60.8953 40.3333 62.3327 41.7707 62.3327 43.5417V49.5C62.3329 50.6241 62.0747 51.7333 61.5781 52.7417C61.0814 53.7502 60.3595 54.631 59.4682 55.316C58.5769 56.001 57.5401 56.472 56.4378 56.6925C55.3355 56.913 54.1972 56.8771 53.111 56.5877C53.661 55.4363 53.9984 54.1677 54.0735 52.8257L54.09 52.2482V43.5417C54.09 42.3225 53.6592 41.2042 52.9368 40.3333ZM43.9993 27.5C45.458 27.5 46.857 28.0795 47.8884 29.1109C48.9199 30.1424 49.4993 31.5413 49.4993 33C49.4993 34.4587 48.9199 35.8576 47.8884 36.8891C46.857 37.9205 45.458 38.5 43.9993 38.5C42.5407 38.5 41.1417 37.9205 40.1103 36.8891C39.0788 35.8576 38.4993 34.4587 38.4993 33C38.4993 31.5413 39.0788 30.1424 40.1103 29.1109C41.1417 28.0795 42.5407 27.5 43.9993 27.5ZM55.916 29.3333C57.1316 29.3333 58.2974 29.8162 59.1569 30.6758C60.0165 31.5353 60.4993 32.7011 60.4993 33.9167C60.4993 35.1322 60.0165 36.298 59.1569 37.1576C58.2974 38.0171 57.1316 38.5 55.916 38.5C54.7004 38.5 53.5347 38.0171 52.6751 37.1576C51.8156 36.298 51.3327 35.1322 51.3327 33.9167C51.3327 32.7011 51.8156 31.5353 52.6751 30.6758C53.5347 29.8162 54.7004 29.3333 55.916 29.3333ZM32.0827 29.3333C33.2983 29.3333 34.464 29.8162 35.3236 30.6758C36.1831 31.5353 36.666 32.7011 36.666 33.9167C36.666 35.1322 36.1831 36.298 35.3236 37.1576C34.464 38.0171 33.2983 38.5 32.0827 38.5C30.8671 38.5 29.7013 38.0171 28.8418 37.1576C27.9822 36.298 27.4993 35.1322 27.4993 33.9167C27.4993 32.7011 27.9822 31.5353 28.8418 30.6758C29.7013 29.8162 30.8671 29.3333 32.0827 29.3333Z" fill="#33BFEB"/>
</svg>
