<svg width="251" height="61" viewBox="0 0 251 61" fill="none" xmlns="http://www.w3.org/2000/svg">
<g clip-path="url(#clip0_394_16579)">
<path d="M93.976 28.1452H77.3757C77.6278 26.6625 78.2659 25.2723 79.226 24.1145C80.1861 22.9568 81.4342 22.0724 82.8446 21.5503C84.2551 21.0281 85.7783 20.8868 87.2608 21.1404C88.7432 21.394 90.1328 22.0336 91.2895 22.9949C92.7935 24.3185 93.7512 26.1544 93.976 28.1452ZM100.383 32.685C100.455 31.8086 100.498 31.1334 100.498 30.6593C100.553 27.9066 99.8997 25.1861 98.602 22.7579C97.3901 20.5241 95.566 18.6826 93.3439 17.4495C91.0072 16.1642 88.3747 15.5129 85.7082 15.5604C82.993 15.5175 80.313 16.1782 77.9288 17.4783C75.6627 18.7186 73.7928 20.5736 72.5343 22.8297C71.2188 25.1777 70.5473 27.8317 70.5877 30.5228C70.5572 33.232 71.2569 35.8994 72.6133 38.2447C73.9522 40.5317 75.9192 42.3865 78.2808 43.589C80.6527 44.7197 83.2265 45.3657 85.8513 45.489C88.4761 45.6124 91.099 45.2106 93.5666 44.3073C95.5046 43.5498 97.2196 42.3142 98.5517 40.7157L96.3177 38.2088H96.2818C95.8792 37.8099 95.3492 37.5654 94.7844 37.5181C94.2197 37.4709 93.6563 37.6238 93.193 37.9502C91.33 39.1689 89.1406 39.7926 86.915 39.7388C84.6568 39.8181 82.4354 39.1517 80.5938 37.8424C78.9086 36.6177 77.7753 34.777 77.4404 32.7209L100.383 32.685ZM121.459 47.475L135.15 15.8692H130.703C130.071 15.8717 129.452 16.0548 128.92 16.3972C128.388 16.7395 127.965 17.2268 127.701 17.8015L119.304 37.512L110.935 17.8877C110.687 17.2991 110.273 16.7951 109.744 16.4369C109.215 16.0786 108.593 15.8814 107.954 15.8692H102.962L115.712 45.2339L115.217 46.3832C114.747 47.5762 114.01 48.6453 113.062 49.5078C112.201 50.1491 111.146 50.4761 110.073 50.4345C109.144 50.4324 108.223 50.2469 107.365 49.8886C107.243 49.8392 107.123 49.7841 107.006 49.7233C106.715 49.6222 106.409 49.5712 106.101 49.5725C105.586 49.5709 105.082 49.7134 104.644 49.9838C104.206 50.2541 103.852 50.6417 103.623 51.1025C103.609 51.1203 103.592 51.1349 103.573 51.1456L102.316 53.4514C103.331 54.3488 104.526 55.0198 105.821 55.4196C107.21 55.8889 108.665 56.1315 110.131 56.1379C112.488 56.2077 114.807 55.5287 116.754 54.1984C118.583 52.8959 120.137 50.6572 121.416 47.4822M161.045 30.53C161.048 32.3409 160.513 34.1119 159.509 35.6189C158.505 37.1258 157.077 38.301 155.404 38.9956C153.732 39.6903 151.891 39.8731 150.115 39.5211C148.338 39.169 146.706 38.2979 145.425 37.0179C144.144 35.7379 143.272 34.1066 142.918 32.3306C142.565 30.5546 142.746 28.7136 143.44 27.0407C144.133 25.3678 145.307 23.9382 146.813 22.9329C148.32 21.9275 150.09 21.3917 151.901 21.3931C154.327 21.3931 156.653 22.3562 158.369 24.0709C160.085 25.7855 161.05 28.1114 161.052 30.5372M166.885 30.5372C166.885 27.5736 166.006 24.6766 164.36 22.2125C162.713 19.7484 160.373 17.8279 157.635 16.6938C154.897 15.5597 151.884 15.2629 148.978 15.8411C146.071 16.4193 143.401 17.8464 141.306 19.9419C139.21 22.0375 137.783 24.7074 137.205 27.614C136.627 30.5206 136.923 33.5334 138.058 36.2713C139.192 39.0093 141.112 41.3495 143.576 42.9959C146.04 44.6424 148.937 45.5212 151.901 45.5212C153.869 45.5222 155.818 45.1352 157.636 44.3825C159.455 43.6299 161.107 42.5262 162.498 41.1346C163.89 39.743 164.994 38.0908 165.746 36.2725C166.499 34.4541 166.886 32.5052 166.885 30.5372ZM207.8 45.0974L218.575 15.8405H214.861C214.178 15.8306 213.509 16.0324 212.946 16.4183C212.383 16.8042 211.953 17.3552 211.715 17.9955L204.532 37.5551L196.63 15.8621H190.884L182.882 37.4546L175.914 17.9811C175.673 17.3598 175.25 16.8259 174.7 16.4491C174.15 16.0723 173.499 15.8702 172.833 15.8692H168.702L179.427 45.0974H185.999L193.671 24.9846L201.228 45.0974H207.8ZM244.528 30.4941C244.538 32.3065 244.009 34.081 243.009 35.5927C242.01 37.1044 240.584 38.2851 238.912 38.9853C237.24 39.6854 235.398 39.8734 233.619 39.5254C231.841 39.1774 230.205 38.3091 228.921 37.0306C227.636 35.7521 226.76 34.1209 226.404 32.3439C226.048 30.5669 226.227 28.7241 226.919 27.0491C227.611 25.3741 228.785 23.9423 230.292 22.9354C231.799 21.9285 233.571 21.3917 235.384 21.3931C236.584 21.3931 237.773 21.6296 238.883 22.0891C239.992 22.5487 241 23.2222 241.849 24.0713C242.699 24.9204 243.372 25.9285 243.832 27.0379C244.291 28.1473 244.528 29.3364 244.528 30.5372M250.368 30.5372C250.37 27.573 249.494 24.6746 247.849 22.2086C246.205 19.7426 243.865 17.8199 241.128 16.6835C238.39 15.5472 235.377 15.2485 232.469 15.825C229.562 16.4015 226.89 17.8275 224.793 19.9225C222.696 22.0174 221.268 24.6873 220.689 27.5943C220.109 30.5013 220.405 33.5148 221.539 36.2536C222.672 38.9925 224.593 41.3335 227.057 42.9806C229.522 44.6277 232.419 45.5068 235.384 45.5068C237.352 45.5078 239.3 45.1209 241.119 44.3682C242.937 43.6155 244.589 42.5118 245.981 41.1202C247.373 39.7287 248.476 38.0765 249.229 36.2581C249.982 34.4397 250.369 32.4908 250.368 30.5228" fill="white"/>
<path d="M60.7058 30.5227C60.7058 24.5956 58.9482 18.8016 55.6552 13.8734C52.3623 8.94517 47.6819 5.10409 42.206 2.83588C36.73 0.567672 30.7044 -0.0257947 24.8912 1.13053C19.0779 2.28685 13.7381 5.14103 9.547 9.33213C5.35589 13.5232 2.5017 18.863 1.34537 24.6763C0.189047 30.4895 0.782516 36.515 3.05073 41.991C5.31895 47.4669 9.16004 52.1473 14.0883 55.4402C19.0165 58.7332 24.8105 60.4907 30.7377 60.4907C38.6857 60.4907 46.3082 57.3334 51.9283 51.7133C57.5484 46.0932 60.7058 38.4707 60.7058 30.5227Z" fill="#FD6C00"/>
<path d="M39.669 19.6045C39.3322 20.269 38.8881 20.8733 38.3544 21.3931C38.0862 21.6517 37.8006 21.8917 37.4996 22.1114C37.3488 22.2119 37.1979 22.3197 37.0327 22.4131C36.9522 22.4643 36.8682 22.5099 36.7813 22.5496L36.7167 22.5855H36.6664L36.5874 22.6214C36.3717 22.7254 36.1819 22.876 36.0316 23.0623C35.8813 23.2487 35.7742 23.4661 35.7182 23.6989C35.6898 23.8067 35.6753 23.9177 35.6751 24.0293C35.6716 24.0819 35.6716 24.1347 35.6751 24.1873C35.6717 24.2135 35.6717 24.2401 35.6751 24.2663V24.3597C35.7894 24.8202 35.7694 25.3037 35.6176 25.7532C35.4848 26.1842 35.2523 26.5778 34.9391 26.9023C34.6259 27.2267 34.2407 27.4729 33.8147 27.6208C33.4705 27.7368 33.1731 27.9611 32.9671 28.2601C32.7717 28.5187 32.6865 28.8441 32.73 29.1652V29.6537C32.7375 30.1976 32.5742 30.7302 32.2631 31.1765C31.8838 31.7419 31.3282 32.1662 30.6828 32.3833L30.5392 32.4264L30.4099 32.4838L30.1728 32.6131C30.0252 32.7143 29.8943 32.8379 29.7849 32.9795C29.6812 33.1032 29.603 33.2462 29.5549 33.4003C29.5069 33.5545 29.4898 33.7166 29.5048 33.8773V33.942C29.5082 33.9874 29.5082 34.0331 29.5048 34.0785V34.3658C29.5116 34.9186 29.3486 35.4601 29.0379 35.9174C28.8446 36.2111 28.6015 36.4688 28.3196 36.6788C28.1836 36.787 28.0367 36.8809 27.8814 36.9589L27.6443 37.0667L27.5294 37.1098H27.4289C27.1051 37.2124 26.8263 37.4228 26.6387 37.706C26.5566 37.844 26.5028 37.9971 26.4806 38.1562C26.4584 38.3153 26.4682 38.4773 26.5094 38.6326L26.5453 38.8193V39.0851C26.5632 39.2595 26.5632 39.4352 26.5453 39.6095C26.51 39.9531 26.4101 40.287 26.2508 40.5936C25.9383 41.2121 25.4128 41.6968 24.7711 41.9584C24.7229 41.9793 24.6722 41.9938 24.6202 42.0015C24.564 42.023 24.5108 42.052 24.4622 42.0877C24.3551 42.1576 24.2584 42.2422 24.1749 42.3391C24.0074 42.5461 23.8983 42.7941 23.8588 43.0574C23.8445 43.1983 23.8445 43.3403 23.8588 43.4812V43.7111C23.888 43.8293 23.9096 43.9492 23.9235 44.0702C23.9843 44.5549 23.9302 45.047 23.7654 45.5068C23.5928 45.9835 23.2859 46.4001 22.8819 46.7064L22.7167 46.807L22.5515 46.8932L22.4294 46.9506L22.3504 46.9937C22.2333 47.0676 22.1309 47.1626 22.0487 47.2739C21.8725 47.5337 21.7707 47.8368 21.7542 48.1502C21.7261 48.4861 21.7702 48.8241 21.8835 49.1415V49.1846C21.9134 49.2837 21.9039 49.3905 21.8571 49.4828C21.8103 49.5751 21.7297 49.6458 21.632 49.6802C21.5834 49.7018 21.5308 49.713 21.4776 49.713C21.4244 49.713 21.3718 49.7018 21.3232 49.6802L21.0718 49.5294L20.9784 49.4073L20.885 49.2923C20.8354 49.2257 20.7898 49.1561 20.7485 49.084C20.6563 48.9455 20.5723 48.8015 20.4971 48.653C20.3351 48.3551 20.1959 48.0453 20.0805 47.7264C19.9629 47.385 19.8881 47.0303 19.8578 46.6705C19.8481 46.4684 19.8626 46.2658 19.9009 46.0671C19.9474 45.8232 20.0563 45.5955 20.217 45.4063L20.2601 45.3632V45.3201C20.2769 45.2852 20.2913 45.2492 20.3032 45.2123C20.3338 45.1164 20.3554 45.0178 20.3678 44.9178C20.3956 44.6792 20.3956 44.4381 20.3678 44.1995C20.3398 43.9565 20.2917 43.7163 20.2241 43.4812C20.1882 43.3663 20.1451 43.2585 20.102 43.1508C20.0589 43.043 20.0518 43.043 20.0302 42.9856L19.9943 42.9137L19.944 42.8204C19.6381 42.2224 19.5085 41.5497 19.5705 40.8809C19.6128 40.5016 19.7379 40.1363 19.9368 39.8106C20.0485 39.6412 20.1812 39.4868 20.3319 39.3509C20.4083 39.2802 20.4899 39.2154 20.5761 39.1569C20.624 39.1349 20.6697 39.1085 20.7126 39.0779L20.8132 39.0277H20.8563C21.1053 38.8508 21.2915 38.5992 21.3878 38.3093C21.4454 38.14 21.4793 37.9636 21.4884 37.785V37.1816C21.4236 36.826 21.4383 36.4605 21.5315 36.1113C21.6196 35.7632 21.7758 35.4361 21.9912 35.1488C22.3961 34.6116 22.9666 34.2229 23.6146 34.0426H23.787L23.9235 33.9851L24.1892 33.8486C24.3558 33.7416 24.5079 33.6137 24.6418 33.4679C24.7672 33.334 24.8671 33.1781 24.9363 33.0082C24.9624 32.9413 24.9793 32.8713 24.9866 32.7999C24.9899 32.7688 24.9899 32.7375 24.9866 32.7065V32.4479C25.011 32.0392 25.1396 31.6436 25.3601 31.2986C25.5532 30.9945 25.796 30.725 26.0784 30.5013C26.5987 30.0876 27.2131 29.8088 27.867 29.6896H27.9245C28.304 29.5903 28.6572 29.4088 28.9589 29.158C29.1026 29.039 29.2241 28.8955 29.318 28.7342C29.3562 28.6742 29.3853 28.6088 29.4042 28.5403C29.4077 28.5117 29.4077 28.4827 29.4042 28.4541C29.407 28.4423 29.407 28.43 29.4042 28.4182V28.2817C29.4224 27.8772 29.5435 27.4841 29.7562 27.1396C29.957 26.8477 30.199 26.5864 30.4745 26.3638C30.985 25.9548 31.5819 25.6674 32.22 25.5234C32.7137 25.4256 33.1637 25.1742 33.5058 24.8051C33.6342 24.6579 33.7145 24.4749 33.7357 24.2807C33.7392 24.2617 33.7392 24.2422 33.7357 24.2232V24.1729C33.7213 24.0512 33.7213 23.9283 33.7357 23.8066C33.7459 23.5598 33.7994 23.3166 33.8937 23.0883C34.0576 22.6883 34.3021 22.3264 34.612 22.0252C34.8972 21.7289 35.2329 21.4857 35.6033 21.3069L35.8834 21.1848L36.0199 21.1345H36.0558C36.1839 21.0769 36.3086 21.0121 36.4293 20.9405C36.6836 20.7924 36.924 20.6217 37.1477 20.4305C37.6084 20.0467 38.0038 19.5906 38.3185 19.0801C38.6459 18.5591 38.8884 17.9893 39.0368 17.3921C39.2921 16.1431 39.2921 14.8555 39.0368 13.6066C39.0231 13.5684 39.0171 13.5278 39.0191 13.4873C39.0211 13.4468 39.031 13.407 39.0483 13.3703C39.0657 13.3336 39.0901 13.3007 39.1202 13.2735C39.1502 13.2462 39.1854 13.2251 39.2236 13.2115C39.296 13.1832 39.3767 13.1847 39.448 13.2156C39.5193 13.2466 39.5755 13.3045 39.6043 13.3767V13.4198C39.866 14.0657 40.0586 14.7375 40.179 15.4239C40.3112 16.1345 40.3354 16.861 40.2508 17.5788C40.2508 17.7584 40.2005 17.9452 40.1646 18.1247C40.1287 18.3043 40.0856 18.4839 40.0281 18.6635C39.9248 19.0195 39.7902 19.3656 39.6259 19.6978M44.1441 17.0545C43.4548 15.2592 42.5218 13.5672 41.3714 12.0263C40.9967 11.5187 40.5862 11.0386 40.143 10.5896C39.7608 10.7744 39.4417 11.068 39.2258 11.4335C39.0098 11.7989 38.9066 12.2201 38.9291 12.644C38.8004 12.0447 38.5529 11.4772 38.2013 10.9751C37.8497 10.473 37.401 10.0464 36.8819 9.72048C36.8819 9.72048 24.4766 8.2623 18.0836 21.8241C12.7896 33.0728 17.825 50.2333 20.3534 51.3539C22.8819 52.4745 38.8429 44.6664 43.8136 33.2811C46.5648 26.9887 46.0117 21.1919 44.1872 16.9611" fill="white"/>
</g>
<defs>
<clipPath id="clip0_394_16579">
<rect width="249.586" height="59.9289" fill="white" transform="translate(0.757812 0.561768)"/>
</clipPath>
</defs>
</svg>
