<svg width="24" height="25" viewBox="0 0 24 25" fill="none" xmlns="http://www.w3.org/2000/svg">
<g id="Social icon" clip-path="url(#clip0_365_575)">
<path id="Vector" d="M24 12.9536C24 6.32619 18.6274 0.953613 12 0.953613C5.37258 0.953613 0 6.32619 0 12.9536C0 18.9431 4.3882 23.9076 10.125 24.8078V16.4224H7.07812V12.9536H10.125V10.3099C10.125 7.30236 11.9166 5.64111 14.6576 5.64111C15.9701 5.64111 17.3438 5.87549 17.3438 5.87549V8.82861H15.8306C14.34 8.82861 13.875 9.75369 13.875 10.7036V12.9536H17.2031L16.6711 16.4224H13.875V24.8078C19.6118 23.9076 24 18.9431 24 12.9536Z" fill="#99A3A5"/>
</g>
<defs>
<clipPath id="clip0_365_575">
<rect width="24" height="24" fill="white" transform="translate(0 0.953613)"/>
</clipPath>
</defs>
</svg>
