<svg xmlns="http://www.w3.org/2000/svg" width="60" height="60" viewBox="0 0 60 60" fill="none">
  <path d="M42.55 7.2C41.35 6 38.95 5 37.25 5H22.75C21.05 5 18.65 6 17.45 7.2L7.2 17.45C6 18.65 5 21.05 5 22.75V37.25C5 38.95 6 41.35 7.2 42.55L11.025 46.375L46.375 11.025L42.55 7.2Z" fill="#292D32"/>
  <path d="M52.8008 17.4498L49.0258 13.6748L13.6758 49.0248L17.4508 52.7998C18.6508 53.9998 21.0508 54.9998 22.7508 54.9998H37.2508C38.9508 54.9998 41.3508 53.9998 42.5508 52.7998L52.8008 42.5498C54.0008 41.3498 55.0008 38.9498 55.0008 37.2498V22.7498C55.0008 21.0498 54.0008 18.6498 52.8008 17.4498Z" fill="#292D32"/>
  <path d="M6.22344 51.175C5.49844 51.9 5.49844 53.1 6.22344 53.825C6.59844 54.2 7.07344 54.375 7.54844 54.375C8.02344 54.375 8.49844 54.2 8.87344 53.825L13.6734 49.025L11.0234 46.375L6.22344 51.175Z" fill="#292D32"/>
  <path d="M53.825 8.87539C54.55 8.15039 54.55 6.95039 53.825 6.22539C53.1 5.50039 51.9 5.50039 51.175 6.22539L46.375 11.0254L49.025 13.6754L53.825 8.87539Z" fill="#292D32"/>
</svg>