<svg width="88" height="88" viewBox="0 0 88 88" fill="none" xmlns="http://www.w3.org/2000/svg">
<rect x="0.75" y="0.857422" width="87" height="87" rx="22.5" fill="#CAC2FF"/>
<path d="M45.3017 56.5347L54.3596 61.2326C54.7578 61.4393 55.0071 61.8499 55.0071 62.2988V64.7253C55.0071 65.5547 54.1867 66.1345 53.4058 65.8573L45.3647 62.9974C44.8861 62.827 44.5664 62.374 44.5664 61.8654V56.9823C44.5671 56.6045 44.9666 56.3609 45.3017 56.5347Z" fill="#7B65FF"/>
<path d="M43.8773 56.5347L34.8194 61.2326C34.4212 61.4393 34.1719 61.8499 34.1719 62.2988V64.7253C34.1719 65.5547 34.9923 66.1345 35.7732 65.8573L43.8143 62.9974C44.2929 62.827 44.6126 62.374 44.6126 61.8654V56.9823C44.6126 56.6045 44.2124 56.3609 43.8773 56.5347Z" fill="#7B65FF"/>
<path d="M58.0906 43.5063H56.3806C55.6225 43.5063 55.0078 42.891 55.0078 42.132V37.7522C55.0078 36.9933 55.6225 36.3779 56.3806 36.3779H58.0906C58.8487 36.3779 59.4633 36.9933 59.4633 37.7522V42.132C59.4633 42.891 58.8487 43.5063 58.0906 43.5063Z" fill="#A899FF"/>
<path d="M49.2188 36.3779L64.2035 43.5929C66.0716 44.4927 65.2827 46.8105 63.1082 46.8105H49.2188V36.3779Z" fill="#7B65FF"/>
<path d="M33.0124 43.5063H31.3025C30.5444 43.5063 29.9297 42.891 29.9297 42.132V37.7522C29.9297 36.9933 30.5444 36.3779 31.3025 36.3779H33.0124C33.7706 36.3779 34.3852 36.9933 34.3852 37.7522V42.132C34.3846 42.891 33.7706 43.5063 33.0124 43.5063Z" fill="#A899FF"/>
<path d="M39.9163 36.3779L24.9316 43.5929C23.0634 44.4927 23.8524 46.8105 26.0269 46.8105H39.9163V36.3779Z" fill="#7B65FF"/>
<path d="M44.5673 21.6061C44.5673 21.6061 39.0781 21.2873 39.0781 35.2247C39.0781 47.8233 41.7433 61.7237 43.901 65.9828C44.1785 66.5303 44.9567 66.5303 45.2336 65.9828C47.3906 61.7237 50.0564 47.8233 50.0564 35.2247C50.0564 21.2873 44.5673 21.6061 44.5673 21.6061Z" fill="#5236FF"/>
<path d="M47.4789 27.7082C47.4789 26.9529 47.1789 26.2286 46.6448 25.6945C46.1107 25.1604 45.3864 24.8604 44.6311 24.8604C43.8758 24.8604 43.1514 25.1604 42.6173 25.6945C42.0832 26.2286 41.7832 26.9529 41.7832 27.7082L44.6311 27.7082H47.4789Z" fill="white"/>
</svg>