<svg width="24" height="25" viewBox="0 0 24 25" fill="none" xmlns="http://www.w3.org/2000/svg">
<g id="ri:instagram-fill">
<path id="Vector" d="M13.0276 2.95484C13.7573 2.95204 14.4871 2.95938 15.2166 2.97684L15.4106 2.98384C15.6346 2.99184 15.8556 3.00184 16.1226 3.01384C17.1866 3.06384 17.9126 3.23184 18.5496 3.47884C19.2096 3.73284 19.7656 4.07684 20.3216 4.63284C20.83 5.13245 21.2234 5.73679 21.4746 6.40384C21.7216 7.04084 21.8896 7.76784 21.9396 8.83184C21.9516 9.09784 21.9616 9.31984 21.9696 9.54384L21.9756 9.73784C21.9934 10.467 22.001 11.1964 21.9986 11.9258L21.9996 12.6718V13.9818C22.0021 14.7116 21.9944 15.4413 21.9766 16.1708L21.9706 16.3648C21.9626 16.5888 21.9526 16.8098 21.9406 17.0768C21.8906 18.1408 21.7206 18.8668 21.4746 19.5038C21.2242 20.1716 20.8307 20.7764 20.3216 21.2758C19.8216 21.7842 19.2169 22.1776 18.5496 22.4288C17.9126 22.6758 17.1866 22.8438 16.1226 22.8938C15.8556 22.9058 15.6346 22.9158 15.4106 22.9238L15.2166 22.9298C14.4871 22.9476 13.7573 22.9553 13.0276 22.9528L12.2816 22.9538H10.9726C10.2429 22.9563 9.51313 22.9486 8.7836 22.9308L8.5896 22.9248C8.35221 22.9162 8.11487 22.9062 7.8776 22.8948C6.8136 22.8448 6.0876 22.6748 5.4496 22.4288C4.78228 22.1782 4.17784 21.7847 3.6786 21.2758C3.16965 20.7761 2.77582 20.1714 2.5246 19.5038C2.2776 18.8668 2.1096 18.1408 2.0596 17.0768C2.04846 16.8396 2.03846 16.6022 2.0296 16.3648L2.0246 16.1708C2.00616 15.4413 1.99783 14.7116 1.9996 13.9818V11.9258C1.99681 11.1964 2.00414 10.467 2.0216 9.73784L2.0286 9.54384C2.0366 9.31984 2.0466 9.09784 2.0586 8.83184C2.1086 7.76684 2.2766 7.04184 2.5236 6.40384C2.77497 5.73646 3.16956 5.13229 3.6796 4.63384C4.17849 4.1246 4.78256 3.73042 5.4496 3.47884C6.0876 3.23184 6.8126 3.06384 7.8776 3.01384L8.5896 2.98384L8.7836 2.97884C9.51278 2.96042 10.2422 2.95208 10.9716 2.95384L13.0276 2.95484ZM11.9996 7.95484C11.3371 7.94547 10.6794 8.06787 10.0646 8.31491C9.4498 8.56195 8.89025 8.92872 8.41845 9.3939C7.94664 9.85907 7.572 10.4134 7.31629 11.0246C7.06057 11.6358 6.92889 12.2918 6.92889 12.9543C6.92889 13.6169 7.06057 14.2729 7.31629 14.8841C7.572 15.4953 7.94664 16.0496 8.41845 16.5148C8.89025 16.98 9.4498 17.3467 10.0646 17.5938C10.6794 17.8408 11.3371 17.9632 11.9996 17.9538C13.3257 17.9538 14.5975 17.4271 15.5351 16.4894C16.4728 15.5517 16.9996 14.2799 16.9996 12.9538C16.9996 11.6278 16.4728 10.356 15.5351 9.41831C14.5975 8.48063 13.3257 7.95484 11.9996 7.95484ZM11.9996 9.95484C12.3981 9.9475 12.7941 10.0196 13.1644 10.1671C13.5347 10.3145 13.8719 10.5342 14.1564 10.8134C14.4408 11.0926 14.6668 11.4257 14.821 11.7932C14.9753 12.1607 15.0548 12.5553 15.0549 12.9538C15.0549 13.3524 14.9756 13.747 14.8214 14.1146C14.6673 14.4821 14.4414 14.8153 14.1571 15.0946C13.8727 15.3739 13.5356 15.5937 13.1653 15.7412C12.7951 15.8888 12.3991 15.9611 12.0006 15.9538C11.205 15.9538 10.4419 15.6378 9.87928 15.0752C9.31667 14.5126 9.0006 13.7495 9.0006 12.9538C9.0006 12.1582 9.31667 11.3951 9.87928 10.8325C10.4419 10.2699 11.205 9.95384 12.0006 9.95384L11.9996 9.95484ZM17.2496 6.45484C16.927 6.46776 16.6219 6.60499 16.3982 6.83782C16.1745 7.07064 16.0496 7.38098 16.0496 7.70384C16.0496 8.02671 16.1745 8.33705 16.3982 8.56987C16.6219 8.80269 16.927 8.93993 17.2496 8.95284C17.5811 8.95284 17.8991 8.82115 18.1335 8.58673C18.3679 8.35231 18.4996 8.03436 18.4996 7.70284C18.4996 7.37132 18.3679 7.05338 18.1335 6.81896C17.8991 6.58454 17.5811 6.45284 17.2496 6.45284V6.45484Z" fill="#99A3A5"/>
</g>
</svg>
