<svg width="30" height="30" viewBox="0 0 30 30" fill="none" xmlns="http://www.w3.org/2000/svg">
<path d="M15 11.25C14.0054 11.25 13.0516 11.6451 12.3483 12.3483C11.6451 13.0516 11.25 14.0054 11.25 15C11.25 15.9946 11.6451 16.9484 12.3483 17.6517C13.0516 18.3549 14.0054 18.75 15 18.75C15.9946 18.75 16.9484 18.3549 17.6517 17.6517C18.3549 16.9484 18.75 15.9946 18.75 15C18.75 14.0054 18.3549 13.0516 17.6517 12.3483C16.9484 11.6451 15.9946 11.25 15 11.25ZM15 8.75C16.6576 8.75 18.2473 9.40848 19.4194 10.5806C20.5915 11.7527 21.25 13.3424 21.25 15C21.25 16.6576 20.5915 18.2473 19.4194 19.4194C18.2473 20.5915 16.6576 21.25 15 21.25C13.3424 21.25 11.7527 20.5915 10.5806 19.4194C9.40848 18.2473 8.75 16.6576 8.75 15C8.75 13.3424 9.40848 11.7527 10.5806 10.5806C11.7527 9.40848 13.3424 8.75 15 8.75ZM23.125 8.4375C23.125 8.8519 22.9604 9.24933 22.6674 9.54235C22.3743 9.83538 21.9769 10 21.5625 10C21.1481 10 20.7507 9.83538 20.4576 9.54235C20.1646 9.24933 20 8.8519 20 8.4375C20 8.0231 20.1646 7.62567 20.4576 7.33265C20.7507 7.03962 21.1481 6.875 21.5625 6.875C21.9769 6.875 22.3743 7.03962 22.6674 7.33265C22.9604 7.62567 23.125 8.0231 23.125 8.4375ZM15 5C11.9075 5 11.4025 5.00875 9.96375 5.0725C8.98375 5.11875 8.32625 5.25 7.71625 5.4875C7.20577 5.67492 6.74427 5.97533 6.36625 6.36625C5.97501 6.74425 5.67419 7.20573 5.48625 7.71625C5.24875 8.32875 5.1175 8.985 5.0725 9.96375C5.0075 11.3438 4.99875 11.8263 4.99875 15C4.99875 18.0938 5.0075 18.5975 5.07125 20.0362C5.1175 21.015 5.24875 21.6737 5.485 22.2825C5.6975 22.8263 5.9475 23.2175 6.3625 23.6325C6.78375 24.0525 7.175 24.3037 7.7125 24.5112C8.33 24.75 8.9875 24.8825 9.9625 24.9275C11.3425 24.9925 11.825 25 14.9988 25C18.0925 25 18.5963 24.9912 20.035 24.9275C21.0125 24.8812 21.67 24.75 22.2812 24.5138C22.7913 24.3254 23.2526 24.0251 23.6313 23.635C24.0525 23.215 24.3038 22.8237 24.5113 22.285C24.7488 21.67 24.8813 21.0125 24.9263 20.035C24.9912 18.6562 24.9988 18.1725 24.9988 15C24.9988 11.9075 24.99 11.4025 24.9263 9.96375C24.88 8.98625 24.7475 8.32625 24.5113 7.71625C24.3228 7.20627 24.0226 6.74498 23.6325 6.36625C23.2547 5.97481 22.7931 5.67396 22.2825 5.48625C21.67 5.24875 21.0125 5.1175 20.035 5.0725C18.6562 5.0075 18.175 5 15 5ZM15 2.5C18.3962 2.5 18.82 2.5125 20.1538 2.575C21.4838 2.6375 22.3913 2.84625 23.1875 3.15625C24.0125 3.47375 24.7075 3.90375 25.4025 4.5975C26.0381 5.22237 26.5299 5.97824 26.8438 6.8125C27.1525 7.60875 27.3625 8.51625 27.425 9.8475C27.4838 11.18 27.5 11.6038 27.5 15C27.5 18.3962 27.4875 18.82 27.425 20.1525C27.3625 21.4837 27.1525 22.39 26.8438 23.1875C26.5308 24.0222 26.0389 24.7782 25.4025 25.4025C24.7775 26.0379 24.0216 26.5297 23.1875 26.8438C22.3913 27.1525 21.4838 27.3625 20.1538 27.425C18.82 27.4838 18.3962 27.5 15 27.5C11.6038 27.5 11.18 27.4875 9.84625 27.425C8.51625 27.3625 7.61 27.1525 6.8125 26.8438C5.97791 26.5306 5.22191 26.0387 4.5975 25.4025C3.96179 24.7777 3.46995 24.0218 3.15625 23.1875C2.84625 22.3912 2.6375 21.4837 2.575 20.1525C2.515 18.82 2.5 18.3962 2.5 15C2.5 11.6038 2.5125 11.18 2.575 9.8475C2.6375 8.515 2.84625 7.61 3.15625 6.8125C3.46905 5.97772 3.961 5.22165 4.5975 4.5975C5.22209 3.96154 5.97804 3.46966 6.8125 3.15625C7.60875 2.84625 8.515 2.6375 9.84625 2.575C11.18 2.51625 11.6038 2.5 15 2.5Z" fill="#094049"/>
</svg>
