<svg width="24" height="25" viewBox="0 0 24 25" fill="none" xmlns="http://www.w3.org/2000/svg">
<g id="Social icon" clip-path="url(#clip0_365_572)">
<g id="Group">
<path id="Vector" d="M22.2234 0.953613H1.77187C0.792187 0.953613 0 1.72705 0 2.6833V23.2192C0 24.1755 0.792187 24.9536 1.77187 24.9536H22.2234C23.2031 24.9536 24 24.1755 24 23.2239V2.6833C24 1.72705 23.2031 0.953613 22.2234 0.953613ZM7.12031 21.4052H3.55781V9.94893H7.12031V21.4052ZM5.33906 8.38799C4.19531 8.38799 3.27188 7.46455 3.27188 6.32549C3.27188 5.18643 4.19531 4.26299 5.33906 4.26299C6.47813 4.26299 7.40156 5.18643 7.40156 6.32549C7.40156 7.45986 6.47813 8.38799 5.33906 8.38799ZM20.4516 21.4052H16.8937V15.8364C16.8937 14.5099 16.8703 12.7989 15.0422 12.7989C13.1906 12.7989 12.9094 14.2474 12.9094 15.7427V21.4052H9.35625V9.94893H12.7687V11.5146H12.8156C13.2891 10.6146 14.4516 9.66299 16.1813 9.66299C19.7859 9.66299 20.4516 12.0349 20.4516 15.1192V21.4052Z" fill="#99A3A5"/>
</g>
</g>
<defs>
<clipPath id="clip0_365_572">
<rect width="24" height="24" fill="white" transform="translate(0 0.953613)"/>
</clipPath>
</defs>
</svg>
