<svg width="60" height="60" viewBox="0 0 60 60" fill="none" xmlns="http://www.w3.org/2000/svg">
<path d="M43.8266 19.425C43.6516 19.4 43.4766 19.4 43.3016 19.425C39.4266 19.3 36.3516 16.125 36.3516 12.225C36.3516 8.25 39.5766 5 43.5766 5C47.5516 5 50.8016 8.225 50.8016 12.225C50.7766 16.125 47.7016 19.3 43.8266 19.425Z" fill="#292D32"/>
<path d="M51.975 36.75C49.175 38.625 45.25 39.325 41.625 38.85C42.575 36.8 43.075 34.525 43.1 32.125C43.1 29.625 42.55 27.25 41.5 25.175C45.2 24.675 49.125 25.375 51.95 27.25C55.9 29.85 55.9 34.125 51.975 36.75Z" fill="#292D32"/>
<path d="M16.0984 19.425C16.2734 19.4 16.4484 19.4 16.6234 19.425C20.4984 19.3 23.5734 16.125 23.5734 12.225C23.5734 8.225 20.3484 5 16.3484 5C12.3734 5 9.14844 8.225 9.14844 12.225C9.14844 16.125 12.2234 19.3 16.0984 19.425Z" fill="#292D32"/>
<path d="M16.3758 32.1245C16.3758 34.5495 16.9008 36.8495 17.8508 38.9245C14.3258 39.2995 10.6508 38.5495 7.95078 36.7745C4.00078 34.1495 4.00078 29.8745 7.95078 27.2495C10.6258 25.4495 14.4008 24.7245 17.9508 25.1245C16.9258 27.2245 16.3758 29.5995 16.3758 32.1245Z" fill="#292D32"/>
<path d="M30.3 39.675C30.1 39.65 29.875 39.65 29.65 39.675C25.05 39.525 21.375 35.75 21.375 31.1C21.4 26.35 25.225 22.5 30 22.5C34.75 22.5 38.6 26.35 38.6 31.1C38.575 35.75 34.925 39.525 30.3 39.675Z" fill="#292D32"/>
<path d="M22.175 44.8496C18.4 47.3746 18.4 51.5246 22.175 54.0246C26.475 56.8996 33.525 56.8996 37.825 54.0246C41.6 51.4996 41.6 47.3496 37.825 44.8496C33.55 41.9746 26.5 41.9746 22.175 44.8496Z" fill="#292D32"/>
</svg>
