<svg width="24" height="25" viewBox="0 0 24 25" fill="none" xmlns="http://www.w3.org/2000/svg">
<path fill-rule="evenodd" clip-rule="evenodd" d="M14.5736 5.51082C18.3389 7.92893 20.4307 10.7434 20.849 13.9543C21.5001 18.9528 17.03 21.3995 14.7651 19.2012C12.5001 17.0029 13.8578 14.2126 15.4979 13.4499C17.1379 12.6872 18.1409 12.9528 17.9659 11.9336C17.791 10.9144 15.4577 8.08848 13.4078 6.77243C13.2718 6.65678 13.22 6.43238 13.351 6.26213C13.4371 6.15018 13.6061 5.9306 13.8578 5.60339C14.078 5.31725 14.2889 5.32797 14.5736 5.51082Z" fill="#ACB4B6"/>
<path fill-rule="evenodd" clip-rule="evenodd" d="M4.66053 5.51082C8.42578 7.92893 10.5176 10.7434 10.9359 13.9543C11.587 18.9528 7.11693 21.3995 4.85198 19.2012C2.58703 17.0029 3.94473 14.2126 5.58478 13.4499C7.22483 12.6872 8.22783 12.9528 8.05283 11.9336C7.87788 10.9144 5.54458 8.08848 3.49468 6.77243C3.35868 6.65678 3.30693 6.43238 3.43793 6.26213C3.52403 6.15018 3.69298 5.9306 3.94473 5.60339C4.16488 5.31725 4.37578 5.32797 4.66053 5.51082Z" fill="#ACB4B6"/>
</svg>
