<svg width="88" height="88" viewBox="0 0 88 88" fill="none" xmlns="http://www.w3.org/2000/svg">
<rect x="0.75" y="0.857422" width="87" height="87" rx="22.5" fill="#FFDBB0"/>
<path d="M31.4773 32.6692C31.759 31.6167 32.3801 30.6865 33.2444 30.0231C34.1087 29.3597 35.1678 29 36.2573 29H51.7457C52.8352 29 53.8943 29.3597 54.7586 30.0231C55.6228 30.6865 56.244 31.6167 56.5257 32.6692L60.4882 47.4767C61.369 50.7683 58.8882 54 55.4807 54H41.5007V42.9583C41.5007 41.6875 40.9958 40.4687 40.0972 39.5701C39.1986 38.6715 37.9798 38.1667 36.709 38.1667H30.459C30.304 38.1667 30.1507 38.1742 30.0007 38.1883L31.4773 32.6692ZM41.5007 57.5417C41.5007 57.6117 41.499 57.6808 41.4965 57.75H52.959C53.0958 57.75 53.2312 57.7231 53.3576 57.6707C53.484 57.6184 53.5988 57.5416 53.6956 57.4449C53.7923 57.3482 53.869 57.2333 53.9214 57.107C53.9737 56.9806 54.0007 56.8451 54.0007 56.7083C54.0007 56.5715 53.9737 56.4361 53.9214 56.3097C53.869 56.1833 53.7923 56.0685 53.6956 55.9718C53.5988 55.875 53.484 55.7983 53.3576 55.746C53.2312 55.6936 53.0958 55.6667 52.959 55.6667H41.5007V57.5417ZM33.584 48.1667C34.1365 48.1667 34.6664 47.9472 35.0571 47.5565C35.4478 47.1658 35.6673 46.6359 35.6673 46.0833C35.6673 45.5308 35.4478 45.0009 35.0571 44.6102C34.6664 44.2195 34.1365 44 33.584 44C33.0315 44 32.5015 44.2195 32.1108 44.6102C31.7201 45.0009 31.5007 45.5308 31.5007 46.0833C31.5007 46.6359 31.7201 47.1658 32.1108 47.5565C32.5015 47.9472 33.0315 48.1667 33.584 48.1667ZM30.459 41.9167C29.884 41.9167 29.4173 42.3833 29.4173 42.9583V57.5417C29.4173 58.1167 29.884 58.5833 30.459 58.5833H36.709C37.284 58.5833 37.7507 58.1167 37.7507 57.5417V42.9583C37.7507 42.3833 37.284 41.9167 36.709 41.9167H30.459ZM27.334 42.9583C27.334 42.1295 27.6632 41.3347 28.2493 40.7486C28.8353 40.1626 29.6302 39.8333 30.459 39.8333H36.709C37.5378 39.8333 38.3326 40.1626 38.9187 40.7486C39.5047 41.3347 39.834 42.1295 39.834 42.9583V57.5417C39.834 58.3705 39.5047 59.1653 38.9187 59.7514C38.3326 60.3374 37.5378 60.6667 36.709 60.6667H30.459C29.6302 60.6667 28.8353 60.3374 28.2493 59.7514C27.6632 59.1653 27.334 58.3705 27.334 57.5417V42.9583Z" fill="#F8AC52"/>
</svg>
