<svg width="255" height="61" viewBox="0 0 255 61" fill="none" xmlns="http://www.w3.org/2000/svg">
<g clip-path="url(#clip0_394_16456)">
<path d="M103.074 32.7442V39.951C102.815 40.0766 102.534 40.3347 102.254 40.3312C96.5945 40.2754 90.9214 40.5126 85.2848 40.0277C77.4521 39.358 71.4476 31.0314 71.178 21.1456C70.9168 11.4621 76.7219 2.73441 84.4283 1.26235C85.2925 1.08079 86.1665 0.979352 87.0429 0.958868C92.2975 0.930962 97.5522 0.958868 102.975 0.958868V8.55986C98.0184 8.55986 93.0249 8.50753 88.0315 8.55986C83.8188 8.61567 80.4487 10.6249 78.5839 15.6062C75.8737 22.82 79.3056 31.2338 85.6556 32.2942C89.1858 32.8837 92.8087 32.643 96.3895 32.7407C98.5407 32.7895 100.692 32.7442 103.074 32.7442ZM173.535 0.878644V8.53195C171.895 8.53195 170.257 8.49358 168.623 8.53195C164.329 8.65753 159.987 8.37149 155.757 9.08659C150.955 9.89937 147.93 15.2225 148.107 21.2189C148.165 24.0243 149.045 26.7069 150.583 28.7625C152.121 30.8181 154.211 32.1051 156.459 32.3814C159.776 32.793 163.141 32.6709 166.483 32.7302C168.775 32.7756 171.066 32.7302 173.465 32.7302V40.7533C166.685 40.3487 159.86 40.7184 153.272 39.3406C146.043 37.8266 141.249 28.7815 141.679 19.8061C142.145 10.0633 147.638 2.48325 155.227 1.17514C156.49 0.973322 157.763 0.875438 159.038 0.882125C163.804 0.861195 168.567 0.878644 173.535 0.878644ZM67.8331 1.11235V8.53195C63.4941 8.53195 59.1438 8.48311 54.7963 8.55637C53.055 8.58776 51.2773 8.65753 49.5866 9.11799C45.211 10.3145 42.161 15.5643 42.3801 21.191C42.5992 26.8176 46.0311 31.7779 50.4881 32.3256C54.0436 32.7616 57.644 32.65 61.2248 32.7337C63.3621 32.7826 65.4993 32.7337 67.7601 32.7337V40.3801C66.1284 40.3801 64.4995 40.401 62.8678 40.3801C58.7253 40.3103 54.5716 40.4742 50.4488 40.087C46.5947 39.7653 42.9776 37.6616 40.3107 34.1909C37.6437 30.7202 36.1205 26.1343 36.0414 21.3375C35.8196 10.9912 41.5123 2.17279 49.7691 1.24142C55.6753 0.575155 61.6714 1.11235 67.8331 1.11235Z" fill="white"/>
<path d="M241.062 33.9684V40.2125H234.884V34.4254C232.536 32.8522 230.317 31.6941 228.396 30.0092C226.543 28.4404 225.009 26.3559 223.918 23.9215C222.827 21.487 222.208 18.7699 222.111 15.9863C221.875 11.0818 222.063 6.14583 222.063 1.04943H228.497C228.497 5.7656 228.363 10.3876 228.534 15.0026C228.731 20.2804 231.076 23.8943 235.016 25.6489C241.312 28.4395 247.373 22.4536 247.55 13.3073C247.631 9.26784 247.55 5.22491 247.55 1.03198H254.094C253.855 7.1644 254.164 13.3596 253.251 19.2618C252.032 27.1279 247.314 31.5266 241.062 33.9684Z" fill="white"/>
<path d="M199.458 8.61218H186.938V1.04956H218.533V8.50404H205.996V40.2475H199.458V8.61218Z" fill="white"/>
<path d="M32.6221 8.54234H19.9672V40.2474H13.6061V8.60862H0.90625V1.00415H32.6221V8.54234Z" fill="white"/>
<path d="M112.794 24.4141V40.1847H106.562V1.04956H112.758V16.6666H127.999V24.4107L112.794 24.4141Z" fill="white"/>
<path d="M138.311 40.272H132.133V1.05664H138.311V40.272Z" fill="white"/>
<path d="M183.147 40.2474H177.027V1.09131H183.158L183.147 40.2474Z" fill="white"/>
<path d="M51.3986 24.2677C51.3565 23.591 51.2947 23.0154 51.2891 22.4399V16.9946H67.8056V24.2677H51.3986Z" fill="white"/>
<path d="M150.666 60.8004C148.208 60.7027 146.192 58.2295 146.231 55.3656C146.276 52.2959 148.534 49.903 151.264 50.0355C153.654 50.1506 155.69 52.7913 155.58 55.6377C155.465 58.6342 153.303 60.905 150.666 60.8004Z" fill="#D9A80D"/>
<path d="M131.954 55.4425C131.929 58.4913 129.862 60.8459 127.261 60.79C124.661 60.7342 122.658 58.3029 122.72 55.2471C122.779 52.4112 124.86 50.0147 127.295 50.0147C129.848 49.9833 131.977 52.4565 131.954 55.4425Z" fill="#18B2D3"/>
<path d="M103.758 50.0496C106.566 50.1124 108.223 52.2019 108.164 55.6309C108.111 58.8157 106.384 60.7866 103.645 60.7831C101.067 60.7831 99.0536 58.275 99.1519 55.2018C99.239 52.2368 101.244 49.9938 103.758 50.0496Z" fill="#86B203"/>
</g>
<defs>
<clipPath id="clip0_394_16456">
<rect width="253.185" height="59.9289" fill="white" transform="translate(0.90625 0.875)"/>
</clipPath>
</defs>
</svg>
