<svg width="30" height="30" viewBox="0 0 30 30" fill="none" xmlns="http://www.w3.org/2000/svg">
<path d="M19.1886 6.93752C18.2388 6.93736 17.3268 7.31 16.6489 7.97528C15.971 8.64057 15.5813 9.54536 15.5636 10.495L15.5286 12.4638C15.5267 12.5696 15.5025 12.6738 15.4574 12.7696C15.4124 12.8653 15.3476 12.9505 15.2674 13.0195C15.1871 13.0884 15.0931 13.1396 14.9916 13.1696C14.8902 13.1997 14.7835 13.2079 14.6786 13.1938L12.7261 12.9275C10.1598 12.5775 7.69984 11.3963 5.33859 9.43002C4.59234 13.5675 6.05109 16.4338 9.56734 18.645L11.7511 20.0175C11.8547 20.0827 11.9407 20.1722 12.0018 20.2782C12.0628 20.3843 12.097 20.5036 12.1013 20.6259C12.1056 20.7482 12.08 20.8697 12.0265 20.9798C11.9731 21.0899 11.8936 21.1852 11.7948 21.2575L9.80484 22.7125C10.9886 22.7875 12.1123 22.735 13.0448 22.55C18.9423 21.3725 22.8636 16.935 22.8636 9.61502C22.8636 9.01752 21.5973 6.93752 19.1886 6.93752ZM13.0636 10.45C13.0854 9.24508 13.4622 8.07336 14.1468 7.08155C14.8314 6.08974 15.7933 5.32192 16.9122 4.87423C18.0311 4.42654 19.2572 4.31887 20.437 4.56471C21.6168 4.81054 22.6979 5.39895 23.5448 6.25627C24.4336 6.25002 25.1898 6.47502 26.8798 5.44877C26.4623 7.49877 26.2548 8.39002 25.3636 9.61377C25.3636 19.165 19.4923 23.8113 13.5336 25C9.44984 25.815 3.50859 24.4763 1.80859 22.6975C2.67484 22.6313 6.19984 22.2525 8.23734 20.76C6.51234 19.6225 -0.347656 15.585 4.16109 4.73252C6.27734 7.20377 8.42359 8.88502 10.5986 9.77877C12.0448 10.3725 12.4011 10.36 13.0648 10.4513L13.0636 10.45Z" fill="#094049"/>
</svg>
