<svg width="24" height="25" viewBox="0 0 24 25" fill="none" xmlns="http://www.w3.org/2000/svg">
<g id="Social icon">
<path id="Vector" d="M7.55016 22.7038C16.6045 22.7038 21.5583 15.2006 21.5583 8.69572C21.5583 8.48478 21.5536 8.26916 21.5442 8.05822C22.5079 7.36132 23.3395 6.49811 24 5.50916C23.1025 5.90846 22.1496 6.16924 21.1739 6.28259C22.2013 5.66677 22.9705 4.69933 23.3391 3.55962C22.3726 4.13241 21.3156 4.53647 20.2134 4.75447C19.4708 3.96542 18.489 3.44297 17.4197 3.26791C16.3504 3.09284 15.2532 3.27491 14.2977 3.78595C13.3423 4.297 12.5818 5.10856 12.1338 6.09517C11.6859 7.08178 11.5754 8.18847 11.8195 9.24416C9.86249 9.14595 7.94794 8.63756 6.19998 7.75196C4.45203 6.86635 2.90969 5.62329 1.67297 4.10337C1.0444 5.1871 0.852057 6.4695 1.13503 7.68995C1.418 8.91039 2.15506 9.9773 3.19641 10.6738C2.41463 10.649 1.64998 10.4385 0.965625 10.0598V10.1207C0.964925 11.258 1.3581 12.3604 2.07831 13.2406C2.79852 14.1208 3.80132 14.7244 4.91625 14.9488C4.19206 15.147 3.43198 15.1759 2.69484 15.0332C3.00945 16.0113 3.62157 16.8667 4.44577 17.4802C5.26997 18.0936 6.26512 18.4345 7.29234 18.4551C5.54842 19.825 3.39417 20.568 1.17656 20.5645C0.783287 20.5639 0.390399 20.5398 0 20.4923C2.25286 21.9376 4.87353 22.7052 7.55016 22.7038Z" fill="#99A3A5"/>
</g>
</svg>
