<svg width="24" height="25" viewBox="0 0 24 25" fill="none" xmlns="http://www.w3.org/2000/svg">
<g id="formkit:whatsapp">
<path id="Vector" d="M20.9247 7.31358C17.7897 2.45358 11.3697 1.01358 6.40468 4.02858C1.55968 7.04358 -0.000315666 13.6136 3.13468 18.4586L3.38968 18.8486L2.33968 22.7786L6.26968 21.7286L6.65968 21.9836C8.35468 22.8986 10.1997 23.4236 12.0297 23.4236C13.9947 23.4236 15.9597 22.8986 17.6547 21.8486C22.4997 18.6986 23.9397 12.2636 20.9247 7.28358V7.31358ZM18.1797 17.4236C17.6547 18.2036 16.9947 18.7286 16.0797 18.8636C15.5547 18.8636 14.8947 19.1186 12.2847 18.0836C10.0647 17.0336 8.21968 15.3236 6.91468 13.3586C6.13468 12.4436 5.72968 11.2586 5.60968 10.0736C5.60968 9.02358 5.99968 8.10858 6.65968 7.44858C6.91468 7.19358 7.18468 7.05858 7.43968 7.05858H8.09968C8.35468 7.05858 8.62468 7.05858 8.75968 7.58358C9.01468 8.24358 9.67468 9.81858 9.67468 9.95358C9.80968 10.0886 9.74968 11.0936 9.14968 11.6636C8.81968 12.0386 8.75968 12.0536 8.89468 12.3236C9.41968 13.1036 10.0797 13.8986 10.7247 14.5586C11.5047 15.2186 12.2997 15.7436 13.2147 16.1336C13.4697 16.2686 13.7397 16.2686 13.8747 15.9986C14.0097 15.7436 14.6547 15.0836 14.9247 14.8136C15.1797 14.5586 15.3147 14.5586 15.5847 14.6786L17.6847 15.7286C17.9397 15.8636 18.2097 15.9836 18.3447 16.1186C18.4797 16.5086 18.4797 17.0336 18.2097 17.4236H18.1797Z" fill="#99A3A5"/>
</g>
</svg>
