<svg xmlns="http://www.w3.org/2000/svg" width="88" height="88" viewBox="0 0 88 88" fill="none">
  <rect x="0.75" y="0.857422" width="87" height="87" rx="22.5" fill="#EFADFF"/>
  <path d="M58.1147 62.3551C60.3166 62.3551 61.9241 60.2476 61.4004 58.0657C59.5128 50.1973 52.5497 44.3574 44.25 44.3574C35.9503 44.3574 28.9849 50.1996 27.0996 58.0681C26.5759 60.2499 28.1834 62.3574 30.3853 62.3574H58.1147V62.3551Z" fill="#C555E1"/>
  <path d="M55.5 66.1074C60.0563 66.1074 63.75 62.4138 63.75 57.8574C63.75 53.3011 60.0563 49.6074 55.5 49.6074C50.9437 49.6074 47.25 53.3011 47.25 57.8574C47.25 62.4138 50.9437 66.1074 55.5 66.1074Z" fill="#E192F4"/>
  <path d="M44.2294 42.0806C49.6028 42.0806 53.9588 37.7214 53.9588 32.344C53.9588 26.9666 49.6028 22.6074 44.2294 22.6074C38.856 22.6074 34.5 26.9666 34.5 32.344C34.5 37.7214 38.856 42.0806 44.2294 42.0806Z" fill="#C555E1"/>
  <path d="M51.75 57.4824C51.75 56.8611 52.2537 56.3574 52.875 56.3574H58.875C59.4963 56.3574 60 56.8611 60 57.4824C60 58.1037 59.4963 58.6074 58.875 58.6074H52.875C52.2537 58.6074 51.75 58.1037 51.75 57.4824Z" fill="white"/>
  <path d="M55.875 61.6074C55.2537 61.6074 54.75 61.1037 54.75 60.4824V54.4824C54.75 53.8611 55.2537 53.3574 55.875 53.3574C56.4963 53.3574 57 53.8611 57 54.4824V60.4824C57 61.1037 56.4963 61.6074 55.875 61.6074Z" fill="white"/>
</svg>